<svg width="42" height="42" viewBox="0 0 42 42" fill="none" xmlns="http://www.w3.org/2000/svg">
<rect width="42" height="42" rx="9" fill="#772BF3"/>
<path d="M27.6669 15.1671H26.4711C26.6386 14.8688 26.7561 14.5421 26.8053 14.193C26.9111 13.453 26.7219 12.7172 26.2744 12.1197C25.8261 11.5214 25.1719 11.1339 24.4319 11.0281C23.6944 10.9239 22.956 11.1114 22.3585 11.5589C21.7785 11.9939 21.3368 12.5555 21.0002 13.1272C20.6635 12.5564 20.2218 11.9939 19.6418 11.5597C19.0443 11.1114 18.3076 10.9248 17.5684 11.0289C16.8284 11.1347 16.1743 11.5222 15.7267 12.1197C15.2784 12.7172 15.0892 13.4538 15.1951 14.193C15.2451 14.5421 15.3617 14.8705 15.5276 15.1671H14.3334C12.495 15.1671 11 16.6621 11 18.5004V20.167C11 21.0861 11.7475 21.8336 12.6667 21.8336V26.8335C12.6667 29.1309 14.5359 31 16.8334 31H20.1668C20.6277 31 21.0002 30.6267 21.0002 30.1667C21.0002 29.7067 20.6277 29.3334 20.1668 29.3334H16.8334C15.4551 29.3334 14.3334 28.2117 14.3334 26.8335V21.8336H23.5002C23.961 21.8336 24.3336 21.4603 24.3336 21.0003C24.3336 20.5403 23.961 20.167 23.5002 20.167H12.6667V18.5004C12.6667 17.5812 13.4142 16.8337 14.3334 16.8337H17.9934C17.9934 16.8337 17.9968 16.8337 17.9976 16.8337C17.9993 16.8337 18.0009 16.8337 18.0026 16.8337H23.996C23.996 16.8337 23.9994 16.8337 24.001 16.8337C24.0027 16.8337 24.0044 16.8337 24.0052 16.8337H27.6653C28.5845 16.8337 29.332 17.5812 29.332 18.5004V20.167C28.8711 20.167 28.4986 20.5403 28.4986 21.0003C28.4986 21.4603 28.8711 21.8336 29.332 21.8336C30.2511 21.8336 30.9987 21.0861 30.9987 20.167V18.5004C30.9987 16.6621 29.5036 15.1671 27.6653 15.1671H27.6669ZM23.3577 12.893C23.5985 12.7122 23.8977 12.6347 24.196 12.6789C24.4944 12.7214 24.7594 12.878 24.9411 13.1197C25.1227 13.3613 25.1986 13.6588 25.1561 13.9572C25.1136 14.2563 24.9569 14.5205 24.6886 14.7221C24.6577 14.7463 24.3802 14.9538 23.8402 15.1663H21.9168C22.1018 14.5355 22.5419 13.5047 23.3585 12.8922L23.3577 12.893ZM17.2851 14.7021C17.0443 14.5205 16.8868 14.2563 16.8451 13.9572C16.8026 13.6588 16.8784 13.3613 17.0609 13.1189C17.2418 12.8772 17.5059 12.7205 17.8051 12.678C18.1001 12.6347 18.4018 12.7114 18.6435 12.893C19.4601 13.5055 19.8993 14.5355 20.0851 15.1671H18.1618C17.6218 14.9546 17.3418 14.7455 17.2868 14.7021H17.2851ZM30.9537 24.8602C31.0637 25.1618 30.9737 25.5002 30.7278 25.7068L28.9203 27.1793L29.6678 29.4559C29.7703 29.7642 29.6661 30.1034 29.4086 30.3009C29.1511 30.4983 28.797 30.5125 28.5253 30.3359L26.4219 28.9659L24.3536 30.35C24.2252 30.4358 24.0769 30.4792 23.9285 30.4792C23.7669 30.4792 23.606 30.4283 23.4702 30.3267C23.2102 30.1325 23.1027 29.795 23.1994 29.4859L23.9177 27.1818L22.1018 25.7043C21.8577 25.4968 21.7685 25.1593 21.8793 24.8585C21.9893 24.5577 22.276 24.3577 22.596 24.3577H24.8886L25.7002 22.0811C25.8111 21.7819 26.0969 21.5836 26.4161 21.5836C26.7353 21.5836 27.0211 21.7819 27.1319 22.0811L27.9436 24.3577H30.2361C30.557 24.3577 30.8437 24.5594 30.9537 24.8602Z" fill="white"/>
</svg>
