<svg width="108" height="147" viewBox="0 0 108 147" fill="none" xmlns="http://www.w3.org/2000/svg">
<path d="M0.027832 10.8487C0.027832 4.85713 4.88496 0 10.8765 0H97.1238C103.115 0 107.972 4.85713 107.972 10.8487V136.151C107.972 142.143 103.115 147 97.1238 147H10.8765C4.88496 147 0.027832 142.143 0.027832 136.151V10.8487Z" fill="#FFFAE5"/>
<path d="M51.1464 87.6861C51.1487 87.6767 51.1482 87.6667 51.1448 87.6576C51.1414 87.6484 51.1352 87.6406 51.1272 87.635C51.1192 87.6294 51.1097 87.6264 51.0999 87.6264C51.0901 87.6263 51.0806 87.6293 51.0725 87.6348C49.247 88.9359 47.2884 89.9879 45.1318 90.6211C43.9428 90.9707 42.5166 90.9551 41.3108 90.9126C35.1139 90.6915 29.7974 86.6531 28.2448 80.5988C26.2448 72.8012 29.9126 66.1695 35.4271 60.8848C38.4103 58.0257 41.6318 55.4135 44.8141 52.7811C47.1016 50.8881 49.2504 48.8388 52.0669 45.9752C52.4349 45.6011 52.9137 45.1868 53.4528 45.0773C54.3201 44.9001 55.0956 45.1522 55.7795 45.8334C57.8622 47.9062 59.6542 49.7378 62.1475 51.8921C65.9752 55.2002 69.3231 57.7834 72.7403 61.0378C74.521 62.7338 76.0714 64.6123 77.3913 66.6732C79.8801 70.5597 80.7806 74.9879 79.9864 79.5423C78.9875 85.266 74.5121 89.664 68.851 90.6781C67.4551 90.9275 65.9961 90.996 64.4741 90.8836C61.7358 90.6814 59.2369 89.1514 56.9942 87.6973C56.9562 87.6727 56.9275 87.6556 56.9081 87.6459C56.9005 87.6424 56.8921 87.6411 56.8838 87.6423C56.8755 87.6434 56.8677 87.6468 56.8614 87.6523C56.855 87.6577 56.8503 87.6648 56.8479 87.6728C56.8455 87.6808 56.8454 87.6893 56.8477 87.6973C58.4461 92.8391 60.1419 97.3712 62.7794 101.853C62.8227 101.927 62.8014 101.965 62.7157 101.967C62.5554 101.971 62.3745 101.958 62.1732 101.93C60.3622 101.671 58.5222 101.46 56.6922 101.392C54.2396 101.3 51.7877 101.332 49.3365 101.487C48.8294 101.519 47.5901 101.681 45.6184 101.972C45.5401 101.984 45.4208 101.978 45.2605 101.957C45.2194 101.952 45.2064 101.93 45.2213 101.891C45.2929 101.701 45.3798 101.522 45.4819 101.355C46.4745 99.7258 47.3481 98.0353 48.1027 96.2834C49.3123 93.4742 50.3268 90.6085 51.1464 87.6861Z" fill="black"/>
<path d="M28.1089 25.4949H18.9025V24.5659C19.3313 24.5342 19.8355 24.4587 20.4151 24.3396C20.9947 24.2126 21.2845 24.0578 21.2845 23.8751C21.2845 23.8116 21.2766 23.7402 21.2607 23.6608C21.2527 23.5814 21.221 23.4742 21.1654 23.3392L19.7243 19.8377H13.8884C13.7534 20.1632 13.6026 20.5443 13.4358 20.981C13.277 21.4177 13.1381 21.8068 13.019 22.1482C12.8681 22.5928 12.7768 22.9144 12.745 23.1129C12.7212 23.3114 12.7093 23.4503 12.7093 23.5297C12.7093 23.7838 12.8999 24.0022 13.281 24.1848C13.6701 24.3595 14.3132 24.4865 15.2104 24.5659V25.4949H8.27881V24.5659C8.54083 24.55 8.83461 24.5103 9.16015 24.4468C9.49363 24.3754 9.75565 24.2801 9.9462 24.161C10.2717 23.9704 10.5457 23.7362 10.768 23.4583C10.9983 23.1804 11.1888 22.8509 11.3397 22.4698C12.2607 20.2386 13.1817 18.0035 14.1028 15.7644C15.0318 13.5254 16.056 11.056 17.1756 8.35645H19.5576C21.1138 12.1835 22.3326 15.2086 23.2139 17.4318C24.0953 19.655 24.8456 21.4971 25.4649 22.9581C25.5681 23.1963 25.6991 23.4146 25.8579 23.6131C26.0167 23.8037 26.243 23.9863 26.5368 24.161C26.7591 24.288 27.0172 24.3833 27.3109 24.4468C27.6047 24.5103 27.8707 24.55 28.1089 24.5659V25.4949ZM19.236 18.6586L16.7825 12.5368L14.3648 18.6586H19.236Z" fill="black"/>
<path d="M17.4669 42.945C17.4675 42.9426 17.4674 42.9401 17.4665 42.9378C17.4656 42.9356 17.464 42.9336 17.462 42.9322C17.4599 42.9308 17.4574 42.93 17.4549 42.93C17.4524 42.93 17.4499 42.9308 17.4478 42.9321C16.9756 43.2569 16.469 43.5196 15.9111 43.6776C15.6035 43.7649 15.2346 43.761 14.9227 43.7504C13.3197 43.6952 11.9444 42.6871 11.5428 41.1758C11.0255 39.2292 11.9742 37.5737 13.4007 36.2545C14.1724 35.5408 15.0057 34.8887 15.8289 34.2316C16.4206 33.759 16.9765 33.2474 17.705 32.5326C17.8002 32.4392 17.9241 32.3358 18.0635 32.3085C18.2879 32.2642 18.4885 32.3272 18.6654 32.4972C19.2041 33.0147 19.6677 33.4719 20.3126 34.0097C21.3028 34.8354 22.1688 35.4803 23.0527 36.2927C23.5134 36.7161 23.9144 37.185 24.2558 37.6995C24.8996 38.6697 25.1326 39.7751 24.9271 40.912C24.6687 42.3408 23.5111 43.4387 22.0467 43.6918C21.6856 43.7541 21.3082 43.7712 20.9145 43.7431C20.2062 43.6927 19.5598 43.3107 18.9796 42.9478C18.9698 42.9416 18.9623 42.9373 18.9573 42.9349C18.9554 42.934 18.9532 42.9337 18.9511 42.934C18.9489 42.9343 18.9469 42.9352 18.9452 42.9365C18.9436 42.9379 18.9424 42.9396 18.9418 42.9416C18.9411 42.9436 18.9411 42.9458 18.9417 42.9478C19.3552 44.2313 19.7938 45.3627 20.4761 46.4814C20.4873 46.4999 20.4818 46.5093 20.4596 46.5099C20.4181 46.5108 20.3714 46.5077 20.3193 46.5007C19.8508 46.436 19.3749 46.3833 18.9015 46.3663C18.2671 46.3434 17.6328 46.3513 16.9987 46.39C16.8676 46.398 16.547 46.4384 16.037 46.5113C16.0167 46.5141 15.9858 46.5128 15.9444 46.5074C15.9338 46.5061 15.9304 46.5006 15.9342 46.4909C15.9528 46.4435 15.9752 46.3989 16.0017 46.3571C16.2584 45.9504 16.4844 45.5284 16.6796 45.0911C16.9925 44.3899 17.2549 43.6745 17.4669 42.945Z" fill="black"/>
<path d="M99.7105 121.369H90.5041V122.298C90.9328 122.33 91.437 122.405 92.0166 122.524C92.5962 122.651 92.8861 122.806 92.8861 122.989C92.8861 123.052 92.8781 123.124 92.8622 123.203C92.8543 123.282 92.8225 123.39 92.767 123.525L91.3259 127.026H85.49C85.355 126.701 85.2041 126.319 85.0374 125.883C84.8786 125.446 84.7396 125.057 84.6205 124.716C84.4697 124.271 84.3784 123.949 84.3466 123.751C84.3228 123.552 84.3109 123.413 84.3109 123.334C84.3109 123.08 84.5014 122.862 84.8826 122.679C85.2716 122.504 85.9148 122.377 86.812 122.298V121.369H79.8804V122.298C80.1424 122.314 80.4362 122.353 80.7617 122.417C81.0952 122.488 81.3572 122.584 81.5478 122.703C81.8733 122.893 82.1472 123.128 82.3696 123.405C82.5998 123.683 82.7904 124.013 82.9412 124.394C83.8623 126.625 84.7833 128.86 85.7043 131.099C86.6333 133.338 87.6576 135.808 88.7771 138.507H91.1591C92.7153 134.68 93.9341 131.655 94.8155 129.432C95.6968 127.209 96.4471 125.367 97.0665 123.906C97.1697 123.668 97.3007 123.449 97.4595 123.251C97.6183 123.06 97.8446 122.877 98.1384 122.703C98.3607 122.576 98.6187 122.48 98.9125 122.417C99.2063 122.353 99.4723 122.314 99.7105 122.298V121.369ZM90.8375 128.205L88.3841 134.327L85.9664 128.205H90.8375Z" fill="black"/>
<path d="M89.0685 103.919C89.0691 103.921 89.069 103.924 89.0681 103.926C89.0672 103.928 89.0656 103.93 89.0635 103.932C89.0615 103.933 89.059 103.934 89.0565 103.934C89.0539 103.934 89.0515 103.933 89.0494 103.932C88.5772 103.607 88.0705 103.344 87.5127 103.186C87.2051 103.099 86.8362 103.103 86.5243 103.113C84.9213 103.169 83.546 104.177 83.1444 105.688C82.627 107.635 83.5758 109.29 85.0023 110.609C85.774 111.323 86.6073 111.975 87.4305 112.632C88.0222 113.105 88.578 113.616 89.3066 114.331C89.4018 114.425 89.5256 114.528 89.6651 114.555C89.8894 114.6 90.0901 114.537 90.2669 114.367C90.8057 113.849 91.2692 113.392 91.9142 112.854C92.9043 112.028 93.7704 111.383 94.6543 110.571C95.1149 110.148 95.516 109.679 95.8574 109.164C96.5012 108.194 96.7341 107.089 96.5287 105.952C96.2703 104.523 95.1126 103.425 93.6482 103.172C93.2871 103.11 92.9097 103.093 92.516 103.121C91.8077 103.171 91.1613 103.553 90.5812 103.916C90.5713 103.922 90.5639 103.926 90.5589 103.929C90.5569 103.93 90.5548 103.93 90.5526 103.93C90.5505 103.929 90.5485 103.929 90.5468 103.927C90.5452 103.926 90.544 103.924 90.5433 103.922C90.5427 103.92 90.5427 103.918 90.5433 103.916C90.9567 102.632 91.3954 101.501 92.0777 100.382C92.0889 100.364 92.0834 100.354 92.0612 100.354C92.0197 100.353 91.9729 100.356 91.9209 100.363C91.4524 100.428 90.9764 100.48 90.5031 100.497C89.8686 100.52 89.2344 100.512 88.6003 100.474C88.4691 100.466 88.1485 100.425 87.6385 100.352C87.6183 100.35 87.5874 100.351 87.5459 100.356C87.5353 100.358 87.5319 100.363 87.5358 100.373C87.5543 100.42 87.5768 100.465 87.6032 100.507C87.86 100.913 88.0859 101.335 88.2812 101.773C88.594 102.474 88.8565 103.189 89.0685 103.919Z" fill="black"/>
</svg>
