<svg width="108" height="147" viewBox="0 0 108 147" fill="none" xmlns="http://www.w3.org/2000/svg">
<path d="M0 10.8487C0 4.85713 4.85713 0 10.8487 0H97.0959C103.088 0 107.945 4.85713 107.945 10.8487V136.151C107.945 142.143 103.088 147 97.0959 147H10.8487C4.85713 147 0 142.143 0 136.151V10.8487Z" fill="#FFFAE5"/>
<path d="M51.8296 74.4492C51.4557 73.3299 50.8976 72.2595 50.1552 71.2378C48.9906 69.6346 47.7854 68.0611 46.5396 66.5175C44.3257 63.7726 42.4749 60.3934 42.476 56.8979C42.4771 55.1395 42.6826 53.4136 43.4131 51.8666C45.0059 48.4938 47.6022 46.3033 51.2018 45.2951C52.3311 44.9785 53.2939 45.0098 54.6444 45.04C55.3049 45.0549 55.8745 45.115 56.3533 45.2201C61.306 46.3118 65.0769 50.521 65.4198 55.606C65.6857 59.5556 64.3096 62.7592 61.9561 65.8229C60.9411 67.145 59.9213 68.4638 58.8967 69.7792C57.8054 71.1797 56.6605 72.7457 56.1221 74.428C56.1167 74.4444 56.1167 74.4621 56.1222 74.4785C56.1276 74.4949 56.1381 74.5091 56.1522 74.5192C56.1664 74.5293 56.1834 74.5346 56.2009 74.5345C56.2183 74.5344 56.2353 74.5288 56.2494 74.5186C58.5203 72.8161 60.6381 70.9895 62.9714 69.3844C64.0743 68.626 65.2236 68.0276 66.4195 67.5891C71.943 65.5634 78.1176 67.4873 81.014 72.7356C82.5576 75.532 82.8771 78.8374 81.8752 81.8866C80.6711 85.5521 77.9613 88.1192 74.2641 89.3496C73.7726 89.5129 73.2662 89.6233 72.745 89.6807C71.5863 89.8089 70.5572 89.8347 69.6576 89.7579C67.6277 89.5841 65.7296 88.9495 63.9633 87.8541C61.4367 86.2858 59.2262 84.4055 56.8984 82.6248C56.4665 82.2937 56.0179 81.988 55.5525 81.7076C55.5445 81.7028 55.5354 81.7002 55.5261 81.7C55.5168 81.6998 55.5076 81.702 55.4996 81.7065C55.4915 81.7109 55.4848 81.7174 55.4802 81.7252C55.4755 81.7331 55.4731 81.7421 55.4731 81.7512C55.4694 81.9205 55.4929 82.1095 55.5435 82.3183C56.4021 85.8507 57.3415 89.1538 58.3617 92.2276C59.4757 95.5863 60.9218 98.794 62.7 101.851C62.7208 101.886 62.7112 101.909 62.671 101.918C62.4275 101.973 62.2338 101.988 62.0901 101.962C58.7973 101.381 55.7468 101.322 52.3188 101.37C50.0074 101.402 47.8487 101.601 45.8426 101.965C45.6944 101.992 45.49 101.976 45.2293 101.915C45.2218 101.914 45.2148 101.91 45.2089 101.905C45.203 101.9 45.1984 101.894 45.1954 101.886C45.1925 101.879 45.1913 101.871 45.1919 101.864C45.1926 101.856 45.1951 101.848 45.1992 101.842C47.1639 98.7433 48.5792 95.2992 49.7732 91.6863C50.8649 88.385 51.7968 85.0278 52.569 81.6147C52.5704 81.6093 52.5701 81.6035 52.5681 81.5982C52.5662 81.5929 52.5627 81.5884 52.5581 81.5851C52.5535 81.5818 52.548 81.58 52.5424 81.5799C52.5368 81.5798 52.5313 81.5814 52.5266 81.5845C49.4292 83.5666 46.8143 86.1706 43.6287 88.0353C41.9354 89.0263 40.3046 89.5699 38.3845 89.7053C36.8799 89.8116 35.3229 89.8518 33.8619 89.4133C31.4782 88.6975 29.5324 87.394 28.0245 85.5029C25.0668 81.7926 24.6356 76.5935 27.0852 72.4817C28.503 70.1029 30.528 68.4239 33.1604 67.4448C33.8663 67.1823 34.5373 67.0101 35.1732 66.928C37.9932 66.5634 40.6285 67.003 43.0792 68.2468C44.3279 68.8799 45.5916 69.7021 46.8702 70.7132C48.4794 71.9854 50.0953 73.2572 51.7179 74.5287C51.843 74.6263 51.8802 74.5999 51.8296 74.4492Z" fill="black"/>
<path d="M28.0806 25.4944H18.8742V24.5654C19.3029 24.5337 19.8071 24.4582 20.3867 24.3391C20.9664 24.2121 21.2562 24.0573 21.2562 23.8746C21.2562 23.8111 21.2482 23.7397 21.2324 23.6603C21.2244 23.5809 21.1927 23.4737 21.1371 23.3387L19.696 19.8372H13.8601C13.7251 20.1627 13.5742 20.5438 13.4075 20.9805C13.2487 21.4172 13.1098 21.8063 12.9907 22.1477C12.8398 22.5923 12.7485 22.9139 12.7167 23.1124C12.6929 23.3109 12.681 23.4499 12.681 23.5293C12.681 23.7833 12.8716 24.0017 13.2527 24.1843C13.6417 24.359 14.2849 24.486 15.1821 24.5654V25.4944H8.25049V24.5654C8.51251 24.5495 8.80629 24.5098 9.13183 24.4463C9.46531 24.3749 9.72732 24.2796 9.91788 24.1605C10.2434 23.9699 10.5174 23.7357 10.7397 23.4578C10.9699 23.1799 11.1605 22.8504 11.3114 22.4693C12.2324 20.2381 13.1534 18.003 14.0745 15.764C15.0034 13.5249 16.0277 11.0556 17.1472 8.35596H19.5292C21.0855 12.183 22.3043 15.2082 23.1856 17.4314C24.0669 19.6545 24.8173 21.4966 25.4366 22.9576C25.5398 23.1958 25.6708 23.4141 25.8296 23.6126C25.9884 23.8032 26.2147 23.9858 26.5085 24.1605C26.7308 24.2875 26.9888 24.3828 27.2826 24.4463C27.5764 24.5098 27.8424 24.5495 28.0806 24.5654V25.4944ZM19.2077 18.6581L16.7542 12.5364L14.3365 18.6581H19.2077Z" fill="black"/>
<path d="M17.6 40.1416C17.5004 39.8431 17.3515 39.5576 17.1536 39.2852C16.843 38.8576 16.5216 38.4381 16.1894 38.0264C15.599 37.2944 15.1055 36.3933 15.1058 35.4612C15.1061 34.9923 15.1609 34.532 15.3557 34.1195C15.7804 33.2201 16.4727 32.636 17.4326 32.3671C17.7338 32.2827 17.9905 32.291 18.3507 32.2991C18.5268 32.3031 18.6787 32.3191 18.8064 32.3471C20.1271 32.6383 21.1327 33.7607 21.2241 35.1167C21.295 36.1699 20.928 37.0242 20.3005 37.8412C20.0298 38.1938 19.7579 38.5454 19.4846 38.8962C19.1936 39.2697 18.8883 39.6873 18.7447 40.1359C18.7433 40.1403 18.7433 40.145 18.7447 40.1494C18.7462 40.1537 18.749 40.1575 18.7528 40.1602C18.7565 40.1629 18.7611 40.1643 18.7657 40.1643C18.7704 40.1643 18.7749 40.1628 18.7787 40.1601C19.3842 39.7061 19.949 39.219 20.5712 38.7909C20.8653 38.5887 21.1718 38.4291 21.4907 38.3122C22.9636 37.772 24.6102 38.285 25.3826 39.6846C25.7942 40.4303 25.8794 41.3117 25.6122 42.1248C25.2911 43.1023 24.5685 43.7869 23.5826 44.115C23.4515 44.1585 23.3165 44.188 23.1775 44.2033C22.8685 44.2375 22.5941 44.2443 22.3542 44.2239C21.8129 44.1775 21.3067 44.0083 20.8357 43.7162C20.1619 43.298 19.5725 42.7966 18.9517 42.3217C18.8366 42.2334 18.7169 42.1519 18.5928 42.0771C18.5907 42.0758 18.5883 42.0751 18.5858 42.0751C18.5833 42.075 18.5809 42.0756 18.5787 42.0768C18.5766 42.078 18.5748 42.0797 18.5735 42.0818C18.5723 42.0839 18.5717 42.0863 18.5717 42.0887C18.5707 42.1339 18.5769 42.1843 18.5904 42.24C18.8194 43.182 19.0699 44.0628 19.3419 44.8825C19.639 45.7781 20.0246 46.6335 20.4988 47.4486C20.5044 47.4581 20.5018 47.4641 20.4911 47.4665C20.4262 47.4812 20.3745 47.4852 20.3362 47.4784C19.4581 47.3233 18.6446 47.3075 17.7305 47.3203C17.1141 47.3291 16.5385 47.382 16.0035 47.479C15.964 47.4864 15.9095 47.482 15.84 47.4659C15.838 47.4654 15.8361 47.4644 15.8345 47.4631C15.833 47.4617 15.8317 47.46 15.8309 47.4581C15.8302 47.4562 15.8298 47.4541 15.83 47.452C15.8302 47.45 15.8309 47.448 15.8319 47.4462C16.3559 46.62 16.7333 45.7015 17.0517 44.7381C17.3428 43.8578 17.5913 42.9625 17.7972 42.0524C17.7976 42.0509 17.7975 42.0494 17.797 42.048C17.7965 42.0465 17.7955 42.0453 17.7943 42.0444C17.7931 42.0436 17.7916 42.0431 17.7901 42.0431C17.7886 42.043 17.7872 42.0435 17.7859 42.0443C16.9599 42.5729 16.2627 43.2673 15.4132 43.7645C14.9616 44.0288 14.5267 44.1737 14.0147 44.2098C13.6135 44.2382 13.1983 44.2489 12.8087 44.132C12.173 43.9411 11.6541 43.5935 11.252 43.0892C10.4633 42.0998 10.3483 40.7134 11.0015 39.6169C11.3796 38.9825 11.9196 38.5348 12.6216 38.2737C12.8098 38.2037 12.9888 38.1578 13.1583 38.1359C13.9103 38.0387 14.6131 38.1559 15.2666 38.4876C15.5996 38.6564 15.9366 38.8756 16.2775 39.1453C16.7067 39.4845 17.1376 39.8237 17.5703 40.1627C17.6036 40.1888 17.6136 40.1817 17.6 40.1416Z" fill="black"/>
<path d="M99.6822 121.254H90.4757V122.183C90.9045 122.214 91.4087 122.29 91.9883 122.409C92.5679 122.536 92.8577 122.691 92.8577 122.873C92.8577 122.937 92.8498 123.008 92.8339 123.088C92.826 123.167 92.7942 123.274 92.7386 123.409L91.2975 126.911H85.4616C85.3267 126.585 85.1758 126.204 85.0091 125.768C84.8503 125.331 84.7113 124.942 84.5922 124.6C84.4414 124.156 84.35 123.834 84.3183 123.636C84.2945 123.437 84.2826 123.298 84.2826 123.219C84.2826 122.965 84.4731 122.746 84.8542 122.564C85.2433 122.389 85.8864 122.262 86.7837 122.183V121.254H79.8521V122.183C80.1141 122.199 80.4078 122.238 80.7334 122.302C81.0669 122.373 81.3289 122.469 81.5194 122.588C81.845 122.778 82.1189 123.012 82.3412 123.29C82.5715 123.568 82.7621 123.898 82.9129 124.279C83.834 126.51 84.755 128.745 85.676 130.984C86.605 133.223 87.6293 135.693 88.7488 138.392H91.1308C92.687 134.565 93.9058 131.54 94.7872 129.317C95.6685 127.094 96.4188 125.251 97.0381 123.791C97.1414 123.552 97.2724 123.334 97.4312 123.135C97.59 122.945 97.8163 122.762 98.11 122.588C98.3324 122.461 98.5904 122.365 98.8842 122.302C99.178 122.238 99.444 122.199 99.6822 122.183V121.254ZM90.8092 128.09L88.3558 134.212L85.938 128.09H90.8092Z" fill="black"/>
<path d="M89.2016 106.607C89.1019 106.905 88.9531 107.19 88.7551 107.463C88.4445 107.89 88.1232 108.31 87.7909 108.722C87.2006 109.454 86.707 110.355 86.7073 111.287C86.7076 111.756 86.7624 112.216 86.9572 112.629C87.382 113.528 88.0743 114.112 89.0342 114.381C89.3353 114.465 89.5921 114.457 89.9522 114.449C90.1284 114.445 90.2803 114.429 90.4079 114.401C91.7287 114.11 92.7342 112.987 92.8257 111.631C92.8966 110.578 92.5296 109.724 91.902 108.907C91.6314 108.554 91.3594 108.203 91.0862 107.852C90.7952 107.478 90.4899 107.061 90.3463 106.612C90.3449 106.608 90.3449 106.603 90.3463 106.599C90.3477 106.594 90.3506 106.591 90.3543 106.588C90.3581 106.585 90.3626 106.584 90.3673 106.584C90.372 106.584 90.3765 106.585 90.3802 106.588C90.9858 107.042 91.5505 107.529 92.1728 107.957C92.4669 108.159 92.7734 108.319 93.0923 108.436C94.5652 108.976 96.2118 108.463 96.9841 107.064C97.3958 106.318 97.4809 105.436 97.2138 104.623C96.8927 103.646 96.1701 102.961 95.1841 102.633C95.0531 102.59 94.9181 102.56 94.7791 102.545C94.4701 102.511 94.1956 102.504 93.9558 102.524C93.4145 102.571 92.9083 102.74 92.4373 103.032C91.7635 103.45 91.174 103.952 90.5533 104.426C90.4381 104.515 90.3185 104.596 90.1944 104.671C90.1923 104.672 90.1898 104.673 90.1873 104.673C90.1849 104.673 90.1824 104.672 90.1803 104.671C90.1781 104.67 90.1763 104.668 90.1751 104.666C90.1739 104.664 90.1732 104.662 90.1732 104.659C90.1722 104.614 90.1785 104.564 90.192 104.508C90.421 103.566 90.6715 102.685 90.9435 101.866C91.2406 100.97 91.6262 100.115 92.1004 99.2995C92.106 99.29 92.1034 99.284 92.0926 99.2816C92.0277 99.2669 91.9761 99.2629 91.9378 99.2697C91.0597 99.4248 90.2462 99.4406 89.3321 99.4278C88.7157 99.419 88.14 99.3661 87.6051 99.2691C87.5656 99.2617 87.5111 99.2661 87.4416 99.2822C87.4395 99.2827 87.4377 99.2837 87.4361 99.285C87.4345 99.2864 87.4333 99.2881 87.4325 99.29C87.4317 99.2919 87.4314 99.294 87.4316 99.2961C87.4318 99.2981 87.4324 99.3001 87.4335 99.3019C87.9574 100.128 88.3348 101.047 88.6532 102.01C88.9444 102.89 89.1929 103.786 89.3988 104.696C89.3992 104.697 89.3991 104.699 89.3986 104.7C89.398 104.702 89.3971 104.703 89.3959 104.704C89.3947 104.705 89.3932 104.705 89.3917 104.705C89.3902 104.705 89.3887 104.705 89.3875 104.704C88.5615 104.175 87.8642 103.481 87.0147 102.984C86.5632 102.719 86.1283 102.574 85.6163 102.538C85.215 102.51 84.7998 102.499 84.4102 102.616C83.7746 102.807 83.2557 103.155 82.8536 103.659C82.0649 104.648 81.9499 106.035 82.6031 107.131C82.9812 107.766 83.5212 108.213 84.2232 108.474C84.4114 108.544 84.5903 108.59 84.7599 108.612C85.5119 108.709 86.2147 108.592 86.8682 108.261C87.2012 108.092 87.5382 107.872 87.8791 107.603C88.3082 107.264 88.7391 106.924 89.1718 106.585C89.2052 106.559 89.2151 106.566 89.2016 106.607Z" fill="black"/>
</svg>
