<svg width="108" height="147" viewBox="0 0 108 147" fill="none" xmlns="http://www.w3.org/2000/svg">
<path d="M0 10.8487C0 4.85713 4.85713 0 10.8487 0H97.0959C103.088 0 107.945 4.85713 107.945 10.8487V136.151C107.945 142.143 103.088 147 97.0959 147H10.8487C4.85713 147 0 142.143 0 136.151V10.8487Z" fill="#FFFAE5"/>
<path d="M39.9481 73.292C39.8199 72.8975 39.6285 72.5203 39.374 72.1603C38.9747 71.5954 38.5615 71.0409 38.1343 70.497C37.3753 69.5297 36.7407 68.339 36.7411 67.1072C36.7415 66.4876 36.812 65.8794 37.0624 65.3343C37.6085 64.1458 38.4987 63.3739 39.7328 63.0186C40.12 62.9071 40.4501 62.9181 40.9131 62.9287C41.1396 62.934 41.3349 62.9551 41.4991 62.9922C43.1971 63.3769 44.49 64.8601 44.6076 66.652C44.6987 68.0437 44.2269 69.1726 43.42 70.2522C43.072 70.7181 42.7224 71.1828 42.3711 71.6464C41.9969 72.1398 41.6044 72.6917 41.4198 73.2845C41.4179 73.2903 41.418 73.2965 41.4198 73.3023C41.4217 73.3081 41.4253 73.3131 41.4301 73.3166C41.435 73.3202 41.4408 73.3221 41.4468 73.322C41.4528 73.322 41.4586 73.32 41.4635 73.3164C42.242 72.7165 42.9681 72.0728 43.7681 71.5072C44.1462 71.24 44.5403 71.0291 44.9503 70.8746C46.8441 70.1608 48.9611 70.8387 49.9541 72.6881C50.4834 73.6735 50.5929 74.8383 50.2494 75.9127C49.8366 77.2044 48.9075 78.109 47.6399 78.5426C47.4714 78.6001 47.2978 78.639 47.1191 78.6592C46.7218 78.7044 46.369 78.7135 46.0606 78.6864C45.3646 78.6252 44.7138 78.4016 44.1082 78.0156C43.2419 77.463 42.4841 76.8004 41.686 76.1729C41.5379 76.0562 41.3841 75.9485 41.2245 75.8497C41.2218 75.848 41.2186 75.8471 41.2154 75.847C41.2123 75.8469 41.2091 75.8477 41.2064 75.8493C41.2036 75.8508 41.2013 75.8531 41.1997 75.8559C41.1981 75.8587 41.1973 75.8618 41.1973 75.865C41.196 75.9247 41.2041 75.9913 41.2214 76.0649C41.5158 77.3096 41.8379 78.4736 42.1876 79.5567C42.5696 80.7403 43.0654 81.8706 43.6751 82.9477C43.6822 82.9603 43.6789 82.9682 43.6651 82.9713C43.5816 82.9908 43.5152 82.996 43.466 82.9871C42.337 82.7821 41.2911 82.7613 40.1158 82.7782C39.3233 82.7898 38.5832 82.8597 37.8954 82.9879C37.8446 82.9976 37.7745 82.9918 37.6851 82.9706C37.6825 82.9699 37.6801 82.9686 37.6781 82.9669C37.6761 82.9651 37.6745 82.9628 37.6735 82.9603C37.6725 82.9577 37.6721 82.955 37.6723 82.9522C37.6725 82.9495 37.6734 82.9469 37.6748 82.9445C38.3484 81.8527 38.8336 80.6391 39.243 79.366C39.6173 78.2027 39.9368 77.0197 40.2016 75.817C40.2021 75.815 40.202 75.813 40.2013 75.8111C40.2006 75.8093 40.1994 75.8077 40.1979 75.8065C40.1963 75.8054 40.1944 75.8047 40.1925 75.8047C40.1905 75.8047 40.1886 75.8052 40.187 75.8063C39.1251 76.5048 38.2286 77.4224 37.1363 78.0794C36.5558 78.4287 35.9966 78.6202 35.3383 78.6679C34.8225 78.7054 34.2886 78.7195 33.7877 78.565C32.9705 78.3128 32.3033 77.8534 31.7863 77.1871C30.7723 75.8796 30.6244 74.0476 31.4643 72.5986C31.9504 71.7604 32.6447 71.1688 33.5472 70.8237C33.7892 70.7312 34.0193 70.6705 34.2373 70.6416C35.2042 70.5131 36.1077 70.6681 36.9479 71.1064C37.3761 71.3295 37.8093 71.6192 38.2477 71.9755C38.7994 72.4238 39.3535 72.8719 39.9098 73.32C39.9527 73.3544 39.9654 73.3451 39.9481 73.292Z" fill="black"/>
<path d="M39.9481 33.1518C39.8199 32.7574 39.6285 32.3802 39.374 32.0202C38.9747 31.4552 38.5615 30.9008 38.1343 30.3568C37.3753 29.3896 36.7407 28.1988 36.7411 26.9671C36.7415 26.3475 36.812 25.7393 37.0624 25.1941C37.6085 24.0056 38.4987 23.2337 39.7328 22.8785C40.12 22.7669 40.4501 22.7779 40.9131 22.7886C41.1396 22.7938 41.3349 22.815 41.4991 22.8521C43.1971 23.2368 44.49 24.72 44.6076 26.5118C44.6987 27.9036 44.2269 29.0325 43.42 30.1121C43.072 30.578 42.7224 31.0427 42.3711 31.5062C41.9969 31.9997 41.6044 32.5515 41.4198 33.1443C41.4179 33.1501 41.418 33.1564 41.4198 33.1621C41.4217 33.1679 41.4253 33.1729 41.4301 33.1765C41.435 33.18 41.4408 33.1819 41.4468 33.1819C41.4528 33.1818 41.4586 33.1799 41.4635 33.1763C42.242 32.5764 42.9681 31.9327 43.7681 31.3671C44.1462 31.0998 44.5403 30.889 44.9503 30.7345C46.8441 30.0206 48.9611 30.6986 49.9541 32.548C50.4834 33.5334 50.5929 34.6981 50.2494 35.7726C49.8366 37.0643 48.9075 37.9689 47.6399 38.4024C47.4714 38.46 47.2978 38.4989 47.1191 38.5191C46.7218 38.5643 46.369 38.5734 46.0606 38.5463C45.3646 38.4851 44.7138 38.2615 44.1082 37.8754C43.2419 37.3228 42.4841 36.6602 41.686 36.0327C41.5379 35.9161 41.3841 35.8083 41.2245 35.7095C41.2218 35.7079 41.2186 35.7069 41.2154 35.7069C41.2123 35.7068 41.2091 35.7076 41.2064 35.7091C41.2036 35.7107 41.2013 35.713 41.1997 35.7158C41.1981 35.7185 41.1973 35.7217 41.1973 35.7249C41.196 35.7846 41.2041 35.8512 41.2214 35.9247C41.5158 37.1695 41.8379 38.3335 42.1876 39.4166C42.5696 40.6001 43.0654 41.7305 43.6751 42.8076C43.6822 42.8202 43.6789 42.8281 43.6651 42.8312C43.5816 42.8507 43.5152 42.8559 43.466 42.847C42.337 42.642 41.2911 42.6211 40.1158 42.6381C39.3233 42.6496 38.5832 42.7195 37.8954 42.8478C37.8446 42.8575 37.7745 42.8517 37.6851 42.8304C37.6825 42.8298 37.6801 42.8285 37.6781 42.8267C37.6761 42.8249 37.6745 42.8227 37.6735 42.8201C37.6725 42.8176 37.6721 42.8148 37.6723 42.8121C37.6725 42.8094 37.6734 42.8067 37.6748 42.8044C38.3484 41.7126 38.8336 40.499 39.243 39.2258C39.6173 38.0625 39.9368 36.8795 40.2016 35.6768C40.2021 35.6749 40.202 35.6729 40.2013 35.671C40.2006 35.6691 40.1994 35.6675 40.1979 35.6664C40.1963 35.6652 40.1944 35.6646 40.1925 35.6646C40.1905 35.6645 40.1886 35.6651 40.187 35.6662C39.1251 36.3646 38.2286 37.2822 37.1363 37.9393C36.5558 38.2885 35.9966 38.4801 35.3383 38.5278C34.8225 38.5652 34.2886 38.5794 33.7877 38.4249C32.9705 38.1726 32.3033 37.7133 31.7863 37.0469C30.7723 35.7395 30.6244 33.9074 31.4643 32.4585C31.9504 31.6203 32.6447 31.0286 33.5472 30.6836C33.7892 30.5911 34.0193 30.5304 34.2373 30.5015C35.2042 30.373 36.1077 30.5279 36.9479 30.9662C37.3761 31.1893 37.8093 31.479 38.2477 31.8353C38.7994 32.2836 39.3535 32.7318 39.9098 33.1798C39.9527 33.2142 39.9654 33.2049 39.9481 33.1518Z" fill="black"/>
<path d="M39.9481 114.933C39.8199 115.328 39.6285 115.705 39.374 116.065C38.9747 116.63 38.5615 117.184 38.1343 117.728C37.3753 118.695 36.7407 119.886 36.7411 121.118C36.7415 121.738 36.812 122.346 37.0624 122.891C37.6085 124.079 38.4987 124.851 39.7328 125.207C40.12 125.318 40.4501 125.307 40.9131 125.296C41.1396 125.291 41.3349 125.27 41.4991 125.233C43.1971 124.848 44.49 123.365 44.6076 121.573C44.6987 120.181 44.2269 119.052 43.42 117.973C43.072 117.507 42.7224 117.042 42.3711 116.579C41.9969 116.085 41.6044 115.533 41.4198 114.941C41.4179 114.935 41.418 114.929 41.4198 114.923C41.4217 114.917 41.4253 114.912 41.4301 114.908C41.435 114.905 41.4408 114.903 41.4468 114.903C41.4528 114.903 41.4586 114.905 41.4635 114.909C42.242 115.509 42.9681 116.152 43.7681 116.718C44.1462 116.985 44.5403 117.196 44.9503 117.351C46.8441 118.064 48.9611 117.386 49.9541 115.537C50.4834 114.552 50.5929 113.387 50.2494 112.312C49.8366 111.021 48.9075 110.116 47.6399 109.683C47.4714 109.625 47.2978 109.586 47.1191 109.566C46.7218 109.521 46.369 109.512 46.0606 109.539C45.3646 109.6 44.7138 109.824 44.1082 110.21C43.2419 110.762 42.4841 111.425 41.686 112.052C41.5379 112.169 41.3841 112.277 41.2245 112.375C41.2218 112.377 41.2186 112.378 41.2154 112.378C41.2123 112.378 41.2091 112.377 41.2064 112.376C41.2036 112.374 41.2013 112.372 41.1997 112.369C41.1981 112.366 41.1973 112.363 41.1973 112.36C41.196 112.3 41.2041 112.234 41.2214 112.16C41.5158 110.915 41.8379 109.752 42.1876 108.668C42.5696 107.485 43.0654 106.355 43.6751 105.277C43.6822 105.265 43.6789 105.257 43.6651 105.254C43.5816 105.234 43.5152 105.229 43.466 105.238C42.337 105.443 41.2911 105.464 40.1158 105.447C39.3233 105.435 38.5832 105.365 37.8954 105.237C37.8446 105.227 37.7745 105.233 37.6851 105.255C37.6825 105.255 37.6801 105.256 37.6781 105.258C37.6761 105.26 37.6745 105.262 37.6735 105.265C37.6725 105.267 37.6721 105.27 37.6723 105.273C37.6725 105.276 37.6734 105.278 37.6748 105.281C38.3484 106.372 38.8336 107.586 39.243 108.859C39.6173 110.022 39.9368 111.205 40.2016 112.408C40.2021 112.41 40.202 112.412 40.2013 112.414C40.2006 112.416 40.1994 112.417 40.1979 112.419C40.1963 112.42 40.1944 112.42 40.1925 112.42C40.1905 112.42 40.1886 112.42 40.187 112.419C39.1251 111.72 38.2286 110.803 37.1363 110.146C36.5558 109.796 35.9966 109.605 35.3383 109.557C34.8225 109.52 34.2886 109.506 33.7877 109.66C32.9705 109.912 32.3033 110.372 31.7863 111.038C30.7723 112.345 30.6244 114.178 31.4643 115.626C31.9504 116.465 32.6447 117.056 33.5472 117.401C33.7892 117.494 34.0193 117.555 34.2373 117.583C35.2042 117.712 36.1077 117.557 36.9479 117.119C37.3761 116.896 37.8093 116.606 38.2477 116.25C38.7994 115.801 39.3535 115.353 39.9098 114.905C39.9527 114.871 39.9654 114.88 39.9481 114.933Z" fill="black"/>
<path d="M53.2174 53.2221C53.0857 52.8277 52.889 52.4505 52.6274 52.0905C52.217 51.5256 51.7923 50.9711 51.3533 50.4272C50.5732 49.4599 49.921 48.2691 49.9214 47.0374C49.9218 46.4178 49.9942 45.8096 50.2516 45.2645C50.8129 44.0759 51.7278 43.304 52.9962 42.9488C53.3942 42.8372 53.7334 42.8483 54.2093 42.8589C54.4421 42.8642 54.6428 42.8853 54.8115 42.9224C56.5567 43.3071 57.8855 44.7903 58.0064 46.5821C58.1001 47.9739 57.6151 49.1028 56.7858 50.1824C56.4282 50.6483 56.0688 51.113 55.7077 51.5765C55.3232 52.07 54.9198 52.6218 54.73 53.2147C54.7281 53.2205 54.7281 53.2267 54.7301 53.2325C54.732 53.2382 54.7357 53.2433 54.7407 53.2468C54.7456 53.2503 54.7516 53.2522 54.7578 53.2522C54.764 53.2522 54.7699 53.2502 54.7749 53.2466C55.5751 52.6467 56.3214 52.003 57.1436 51.4374C57.5322 51.1702 57.9372 50.9593 58.3587 50.8048C60.305 50.0909 62.4809 50.7689 63.5015 52.6183C64.0454 53.6037 64.158 54.7684 63.8049 55.8429C63.3806 57.1346 62.4257 58.0392 61.1229 58.4727C60.9497 58.5303 60.7713 58.5692 60.5876 58.5894C60.1793 58.6346 59.8167 58.6437 59.4997 58.6166C58.7844 58.5554 58.1155 58.3318 57.4931 57.9458C56.6028 57.3931 55.8239 56.7306 55.0036 56.1031C54.8514 55.9864 54.6933 55.8787 54.5293 55.7798C54.5265 55.7782 54.5233 55.7772 54.52 55.7772C54.5167 55.7771 54.5135 55.7779 54.5107 55.7795C54.5078 55.781 54.5055 55.7833 54.5038 55.7861C54.5022 55.7888 54.5013 55.792 54.5014 55.7952C54.5 55.8549 54.5083 55.9215 54.5262 55.9951C54.8287 57.2398 55.1597 58.4038 55.5192 59.4869C55.9118 60.6704 56.4213 61.8008 57.048 62.8779C57.0553 62.8905 57.0519 62.8984 57.0377 62.9015C56.9519 62.921 56.8837 62.9262 56.8331 62.9173C55.6727 62.7123 54.5978 62.6914 53.3898 62.7084C52.5753 62.7199 51.8146 62.7898 51.1077 62.9181C51.0555 62.9278 50.9835 62.922 50.8916 62.9007C50.889 62.9001 50.8865 62.8988 50.8844 62.897C50.8823 62.8952 50.8807 62.893 50.8797 62.8904C50.8786 62.8879 50.8782 62.8852 50.8785 62.8824C50.8787 62.8797 50.8796 62.8771 50.881 62.8747C51.5734 61.7829 52.072 60.5693 52.4928 59.2961C52.8775 58.1328 53.2059 56.9498 53.478 55.7471C53.4785 55.7452 53.4784 55.7432 53.4777 55.7413C53.477 55.7394 53.4758 55.7378 53.4742 55.7367C53.4725 55.7355 53.4706 55.7349 53.4686 55.7349C53.4666 55.7348 53.4647 55.7354 53.463 55.7365C52.3716 56.4349 51.4502 57.3525 50.3276 58.0096C49.7309 58.3588 49.1562 58.5504 48.4796 58.5981C47.9495 58.6355 47.4008 58.6497 46.886 58.4952C46.046 58.243 45.3604 57.7836 44.829 57.1172C43.7867 55.8098 43.6348 53.9777 44.498 52.5288C44.9976 51.6906 45.7112 51.0989 46.6388 50.7539C46.8875 50.6614 47.1239 50.6007 47.348 50.5718C48.3418 50.4433 49.2704 50.5982 50.134 51.0365C50.574 51.2596 51.0193 51.5493 51.4698 51.9057C52.0369 52.3539 52.6063 52.8021 53.1781 53.2501C53.2222 53.2846 53.2353 53.2752 53.2174 53.2221Z" fill="black"/>
<path d="M53.2174 94.8628C53.0857 95.2572 52.889 95.6344 52.6274 95.9944C52.217 96.5594 51.7923 97.1139 51.3533 97.6578C50.5732 98.6251 49.921 99.8158 49.9214 101.048C49.9218 101.667 49.9942 102.275 50.2516 102.821C50.8129 104.009 51.7278 104.781 52.9962 105.136C53.3942 105.248 53.7334 105.237 54.2093 105.226C54.4421 105.221 54.6428 105.2 54.8115 105.163C56.5567 104.778 57.8855 103.295 58.0064 101.503C58.1001 100.111 57.6151 98.9822 56.7858 97.9026C56.4282 97.4367 56.0688 96.972 55.7077 96.5084C55.3232 96.0149 54.9198 95.4631 54.73 94.8703C54.7281 94.8645 54.7281 94.8583 54.7301 94.8525C54.732 94.8467 54.7357 94.8417 54.7407 94.8382C54.7456 94.8346 54.7516 94.8327 54.7578 94.8328C54.764 94.8328 54.7699 94.8348 54.7749 94.8384C55.5751 95.4383 56.3214 96.082 57.1436 96.6476C57.5322 96.9148 57.9372 97.1257 58.3587 97.2802C60.305 97.994 62.4809 97.3161 63.5015 95.4667C64.0454 94.4813 64.158 93.3165 63.8049 92.242C63.3806 90.9504 62.4257 90.0458 61.1229 89.6122C60.9497 89.5547 60.7713 89.5158 60.5876 89.4955C60.1793 89.4503 59.8167 89.4413 59.4997 89.4683C58.7844 89.5296 58.1155 89.7532 57.4931 90.1392C56.6028 90.6918 55.8239 91.3544 55.0036 91.9819C54.8514 92.0986 54.6933 92.2063 54.5293 92.3051C54.5265 92.3068 54.5233 92.3077 54.52 92.3078C54.5167 92.3079 54.5135 92.3071 54.5107 92.3055C54.5078 92.3039 54.5055 92.3017 54.5038 92.2989C54.5022 92.2961 54.5013 92.293 54.5014 92.2897C54.5 92.2301 54.5083 92.1635 54.5262 92.0899C54.8287 90.8451 55.1597 89.6812 55.5192 88.598C55.9118 87.4145 56.4213 86.2842 57.048 85.2071C57.0553 85.1945 57.0519 85.1866 57.0377 85.1834C56.9519 85.164 56.8837 85.1587 56.8331 85.1677C55.6727 85.3726 54.5978 85.3935 53.3898 85.3766C52.5753 85.365 51.8146 85.2951 51.1077 85.1669C51.0555 85.1572 50.9835 85.1629 50.8916 85.1842C50.889 85.1849 50.8865 85.1861 50.8844 85.1879C50.8823 85.1897 50.8807 85.192 50.8797 85.1945C50.8786 85.1971 50.8782 85.1998 50.8785 85.2025C50.8787 85.2053 50.8796 85.2079 50.881 85.2102C51.5734 86.3021 52.072 87.5157 52.4928 88.7888C52.8775 89.9521 53.2059 91.1351 53.478 92.3378C53.4785 92.3398 53.4784 92.3418 53.4777 92.3436C53.477 92.3455 53.4758 92.3471 53.4742 92.3483C53.4725 92.3494 53.4706 92.3501 53.4686 92.3501C53.4666 92.3501 53.4647 92.3496 53.463 92.3485C52.3716 91.65 51.4502 90.7324 50.3276 90.0754C49.7309 89.7261 49.1562 89.5346 48.4796 89.4869C47.9495 89.4494 47.4008 89.4352 46.886 89.5897C46.046 89.842 45.3604 90.3013 44.829 90.9677C43.7867 92.2752 43.6348 94.1072 44.498 95.5561C44.9976 96.3944 45.7112 96.986 46.6388 97.331C46.8875 97.4235 47.1239 97.4842 47.348 97.5131C48.3418 97.6416 49.2704 97.4867 50.134 97.0484C50.574 96.8253 51.0193 96.5356 51.4698 96.1793C52.0369 95.731 52.6063 95.2829 53.1781 94.8348C53.2222 94.8004 53.2353 94.8097 53.2174 94.8628Z" fill="black"/>
<path d="M65.9847 73.292C65.8565 72.8975 65.6652 72.5203 65.4106 72.1603C65.0113 71.5954 64.5981 71.0409 64.171 70.497C63.4119 69.5297 62.7774 68.339 62.7777 67.1072C62.7781 66.4876 62.8486 65.8794 63.0991 65.3343C63.6452 64.1458 64.5353 63.3739 65.7695 63.0186C66.1566 62.9071 66.4868 62.9181 66.9498 62.9287C67.1762 62.934 67.3715 62.9551 67.5357 62.9922C69.2338 63.3769 70.5266 64.8601 70.6442 66.652C70.7354 68.0437 70.2635 69.1726 69.4566 70.2522C69.1087 70.7181 68.759 71.1828 68.4077 71.6464C68.0335 72.1398 67.641 72.6917 67.4564 73.2845C67.4546 73.2903 67.4546 73.2965 67.4564 73.3023C67.4583 73.3081 67.4619 73.3131 67.4668 73.3166C67.4716 73.3202 67.4774 73.3221 67.4834 73.322C67.4894 73.322 67.4952 73.32 67.5001 73.3164C68.2786 72.7165 69.0047 72.0728 69.8048 71.5072C70.1829 71.24 70.5769 71.0291 70.987 70.8746C72.8807 70.1608 74.9977 70.8387 75.9908 72.6881C76.52 73.6735 76.6296 74.8383 76.286 75.9127C75.8732 77.2044 74.9441 78.109 73.6765 78.5426C73.508 78.6001 73.3344 78.639 73.1557 78.6592C72.7584 78.7044 72.4056 78.7135 72.0972 78.6864C71.4012 78.6252 70.7504 78.4016 70.1448 78.0156C69.2786 77.463 68.5207 76.8004 67.7226 76.1729C67.5745 76.0562 67.4207 75.9485 67.2611 75.8497C67.2584 75.848 67.2553 75.8471 67.2521 75.847C67.2489 75.8469 67.2457 75.8477 67.243 75.8493C67.2402 75.8508 67.2379 75.8531 67.2363 75.8559C67.2347 75.8587 67.2339 75.8618 67.2339 75.865C67.2326 75.9247 67.2407 75.9913 67.258 76.0649C67.5524 77.3096 67.8745 78.4736 68.2243 79.5567C68.6062 80.7403 69.102 81.8706 69.7117 82.9477C69.7188 82.9603 69.7155 82.9682 69.7017 82.9713C69.6182 82.9908 69.5519 82.996 69.5026 82.9871C68.3736 82.7821 67.3277 82.7613 66.1524 82.7782C65.3599 82.7898 64.6198 82.8597 63.932 82.9879C63.8812 82.9976 63.8111 82.9918 63.7218 82.9706C63.7192 82.9699 63.7168 82.9686 63.7147 82.9669C63.7127 82.9651 63.7111 82.9628 63.7101 82.9603C63.7091 82.9577 63.7087 82.955 63.7089 82.9522C63.7092 82.9495 63.71 82.9469 63.7114 82.9445C64.385 81.8527 64.8703 80.6391 65.2797 79.366C65.6539 78.2027 65.9735 77.0197 66.2382 75.817C66.2387 75.815 66.2386 75.813 66.2379 75.8111C66.2372 75.8093 66.236 75.8077 66.2345 75.8065C66.2329 75.8054 66.231 75.8047 66.2291 75.8047C66.2272 75.8047 66.2253 75.8052 66.2237 75.8063C65.1617 76.5048 64.2652 77.4224 63.173 78.0794C62.5924 78.4287 62.0333 78.6202 61.375 78.6679C60.8591 78.7054 60.3252 78.7195 59.8243 78.565C59.0071 78.3128 58.34 77.8534 57.823 77.1871C56.8089 75.8796 56.661 74.0476 57.5009 72.5986C57.987 71.7604 58.6813 71.1688 59.5838 70.8237C59.8259 70.7312 60.0559 70.6705 60.2739 70.6416C61.2408 70.5131 62.1443 70.6681 62.9845 71.1064C63.4127 71.3295 63.846 71.6192 64.2843 71.9755C64.8361 72.4238 65.3901 72.8719 65.9464 73.32C65.9893 73.3544 66.002 73.3451 65.9847 73.292Z" fill="black"/>
<path d="M65.9847 33.1518C65.8565 32.7574 65.6652 32.3802 65.4106 32.0202C65.0113 31.4552 64.5981 30.9008 64.171 30.3568C63.4119 29.3896 62.7774 28.1988 62.7777 26.9671C62.7781 26.3475 62.8486 25.7393 63.0991 25.1941C63.6452 24.0056 64.5353 23.2337 65.7695 22.8785C66.1566 22.7669 66.4868 22.7779 66.9498 22.7886C67.1762 22.7938 67.3715 22.815 67.5357 22.8521C69.2338 23.2368 70.5266 24.72 70.6442 26.5118C70.7354 27.9036 70.2635 29.0325 69.4566 30.1121C69.1087 30.578 68.759 31.0427 68.4077 31.5062C68.0335 31.9997 67.641 32.5515 67.4564 33.1443C67.4546 33.1501 67.4546 33.1564 67.4564 33.1621C67.4583 33.1679 67.4619 33.1729 67.4668 33.1765C67.4716 33.18 67.4774 33.1819 67.4834 33.1819C67.4894 33.1818 67.4952 33.1799 67.5001 33.1763C68.2786 32.5764 69.0047 31.9327 69.8048 31.3671C70.1829 31.0998 70.5769 30.889 70.987 30.7345C72.8807 30.0206 74.9977 30.6986 75.9908 32.548C76.52 33.5334 76.6296 34.6981 76.286 35.7726C75.8732 37.0643 74.9441 37.9689 73.6765 38.4024C73.508 38.46 73.3344 38.4989 73.1557 38.5191C72.7584 38.5643 72.4056 38.5734 72.0972 38.5463C71.4012 38.4851 70.7504 38.2615 70.1448 37.8754C69.2786 37.3228 68.5207 36.6602 67.7226 36.0327C67.5745 35.9161 67.4207 35.8083 67.2611 35.7095C67.2584 35.7079 67.2553 35.7069 67.2521 35.7069C67.2489 35.7068 67.2457 35.7076 67.243 35.7091C67.2402 35.7107 67.2379 35.713 67.2363 35.7158C67.2347 35.7185 67.2339 35.7217 67.2339 35.7249C67.2326 35.7846 67.2407 35.8512 67.258 35.9247C67.5524 37.1695 67.8745 38.3335 68.2243 39.4166C68.6062 40.6001 69.102 41.7305 69.7117 42.8076C69.7188 42.8202 69.7155 42.8281 69.7017 42.8312C69.6182 42.8507 69.5519 42.8559 69.5026 42.847C68.3736 42.642 67.3277 42.6211 66.1524 42.6381C65.3599 42.6496 64.6198 42.7195 63.932 42.8478C63.8812 42.8575 63.8111 42.8517 63.7218 42.8304C63.7192 42.8298 63.7168 42.8285 63.7147 42.8267C63.7127 42.8249 63.7111 42.8227 63.7101 42.8201C63.7091 42.8176 63.7087 42.8148 63.7089 42.8121C63.7092 42.8094 63.71 42.8067 63.7114 42.8044C64.385 41.7126 64.8703 40.499 65.2797 39.2258C65.6539 38.0625 65.9735 36.8795 66.2382 35.6768C66.2387 35.6749 66.2386 35.6729 66.2379 35.671C66.2372 35.6691 66.236 35.6675 66.2345 35.6664C66.2329 35.6652 66.231 35.6646 66.2291 35.6646C66.2272 35.6645 66.2253 35.6651 66.2237 35.6662C65.1617 36.3646 64.2652 37.2822 63.173 37.9393C62.5924 38.2885 62.0333 38.4801 61.375 38.5278C60.8591 38.5652 60.3252 38.5794 59.8243 38.4249C59.0071 38.1726 58.34 37.7133 57.823 37.0469C56.8089 35.7395 56.661 33.9074 57.5009 32.4585C57.987 31.6203 58.6813 31.0286 59.5838 30.6836C59.8259 30.5911 60.0559 30.5304 60.2739 30.5015C61.2408 30.373 62.1443 30.5279 62.9845 30.9662C63.4127 31.1893 63.846 31.479 64.2843 31.8353C64.8361 32.2836 65.3901 32.7318 65.9464 33.1798C65.9893 33.2142 66.002 33.2049 65.9847 33.1518Z" fill="black"/>
<path d="M65.9847 114.933C65.8565 115.328 65.6652 115.705 65.4106 116.065C65.0113 116.63 64.5981 117.184 64.171 117.728C63.4119 118.695 62.7774 119.886 62.7777 121.118C62.7781 121.738 62.8486 122.346 63.0991 122.891C63.6452 124.079 64.5353 124.851 65.7695 125.207C66.1566 125.318 66.4868 125.307 66.9498 125.296C67.1762 125.291 67.3715 125.27 67.5357 125.233C69.2338 124.848 70.5266 123.365 70.6442 121.573C70.7354 120.181 70.2635 119.052 69.4566 117.973C69.1087 117.507 68.759 117.042 68.4077 116.579C68.0335 116.085 67.641 115.533 67.4564 114.941C67.4546 114.935 67.4546 114.929 67.4564 114.923C67.4583 114.917 67.4619 114.912 67.4668 114.908C67.4716 114.905 67.4774 114.903 67.4834 114.903C67.4894 114.903 67.4952 114.905 67.5001 114.909C68.2786 115.509 69.0047 116.152 69.8048 116.718C70.1829 116.985 70.5769 117.196 70.987 117.351C72.8807 118.064 74.9977 117.386 75.9908 115.537C76.52 114.552 76.6296 113.387 76.286 112.312C75.8732 111.021 74.9441 110.116 73.6765 109.683C73.508 109.625 73.3344 109.586 73.1557 109.566C72.7584 109.521 72.4056 109.512 72.0972 109.539C71.4012 109.6 70.7504 109.824 70.1448 110.21C69.2786 110.762 68.5207 111.425 67.7226 112.052C67.5745 112.169 67.4207 112.277 67.2611 112.375C67.2584 112.377 67.2553 112.378 67.2521 112.378C67.2489 112.378 67.2457 112.377 67.243 112.376C67.2402 112.374 67.2379 112.372 67.2363 112.369C67.2347 112.366 67.2339 112.363 67.2339 112.36C67.2326 112.3 67.2407 112.234 67.258 112.16C67.5524 110.915 67.8745 109.752 68.2243 108.668C68.6062 107.485 69.102 106.355 69.7117 105.277C69.7188 105.265 69.7155 105.257 69.7017 105.254C69.6182 105.234 69.5519 105.229 69.5026 105.238C68.3736 105.443 67.3277 105.464 66.1524 105.447C65.3599 105.435 64.6198 105.365 63.932 105.237C63.8812 105.227 63.8111 105.233 63.7218 105.255C63.7192 105.255 63.7168 105.256 63.7147 105.258C63.7127 105.26 63.7111 105.262 63.7101 105.265C63.7091 105.267 63.7087 105.27 63.7089 105.273C63.7092 105.276 63.71 105.278 63.7114 105.281C64.385 106.372 64.8703 107.586 65.2797 108.859C65.6539 110.022 65.9735 111.205 66.2382 112.408C66.2387 112.41 66.2386 112.412 66.2379 112.414C66.2372 112.416 66.236 112.417 66.2345 112.419C66.2329 112.42 66.231 112.42 66.2291 112.42C66.2272 112.42 66.2253 112.42 66.2237 112.419C65.1617 111.72 64.2652 110.803 63.173 110.146C62.5924 109.796 62.0333 109.605 61.375 109.557C60.8591 109.52 60.3252 109.506 59.8243 109.66C59.0071 109.912 58.34 110.372 57.823 111.038C56.8089 112.345 56.661 114.178 57.5009 115.626C57.987 116.465 58.6813 117.056 59.5838 117.401C59.8259 117.494 60.0559 117.555 60.2739 117.583C61.2408 117.712 62.1443 117.557 62.9845 117.119C63.4127 116.896 63.846 116.606 64.2843 116.25C64.8361 115.801 65.3901 115.353 65.9464 114.905C65.9893 114.871 66.002 114.88 65.9847 114.933Z" fill="black"/>
<path d="M24.0898 20.7663C24.0898 22.2272 23.4348 23.4539 22.1247 24.4464C20.8225 25.4389 19.0479 25.9352 16.8009 25.9352C14.7921 25.9352 13.1684 25.5104 11.9298 24.6608C10.6911 23.8112 10.0718 22.7235 10.0718 21.3975C10.0718 20.3732 10.4013 19.5316 11.0603 18.8726C11.7273 18.2056 12.7754 17.7054 14.2046 17.3719C13.0612 16.8558 12.1957 16.2047 11.6082 15.4187C11.0286 14.6326 10.7388 13.7553 10.7388 12.7866C10.7388 11.4606 11.37 10.349 12.6324 9.45178C13.9028 8.55457 15.471 8.10596 17.3369 8.10596C19.1472 8.10596 20.6121 8.50296 21.7317 9.29695C22.8591 10.091 23.4229 11.0755 23.4229 12.2506C23.4229 13.1558 23.1172 13.918 22.5058 14.5373C21.8944 15.1487 20.9813 15.637 19.7665 16.0023C21.291 16.5501 22.3907 17.225 23.0656 18.027C23.7484 18.821 24.0898 19.7341 24.0898 20.7663ZM19.4449 12.2268C19.4449 11.3058 19.2385 10.5634 18.8256 9.99964C18.4207 9.42796 17.853 9.14212 17.1225 9.14212C16.4317 9.14212 15.86 9.38429 15.4075 9.86863C14.9549 10.353 14.7286 10.9723 14.7286 11.7266C14.7286 12.2506 14.8278 12.6913 15.0263 13.0486C15.2248 13.398 15.5067 13.7036 15.872 13.9657C16.2054 14.2118 16.6739 14.4818 17.2773 14.7755C17.8887 15.0693 18.4326 15.3353 18.909 15.5735C19.0837 15.1765 19.2147 14.6922 19.302 14.1205C19.3973 13.5409 19.4449 12.9096 19.4449 12.2268ZM20.0881 21.9692C20.0881 21.4134 19.969 20.9528 19.7308 20.5876C19.4926 20.2224 19.1512 19.8929 18.7065 19.5991C18.2619 19.3132 17.6942 19.0195 17.0034 18.7177C16.3206 18.416 15.6695 18.1103 15.0502 17.8007C14.7881 18.1103 14.5579 18.5748 14.3594 19.1941C14.1609 19.8135 14.0616 20.4685 14.0616 21.1593C14.0616 22.3265 14.3435 23.2396 14.9072 23.8986C15.471 24.5576 16.2134 24.8871 17.1344 24.8871C18.0554 24.8871 18.778 24.6171 19.302 24.0772C19.8261 23.5373 20.0881 22.8346 20.0881 21.9692Z" fill="black"/>
<path d="M16.5153 40.1417C16.4156 39.8432 16.2668 39.5577 16.0688 39.2853C15.7583 38.8578 15.4369 38.4382 15.1047 38.0265C14.5143 37.2946 14.0207 36.3934 14.021 35.4613C14.0213 34.9924 14.0761 34.5322 14.2709 34.1196C14.6957 33.2202 15.388 32.6361 16.3479 32.3672C16.6491 32.2828 16.9058 32.2912 17.2659 32.2992C17.4421 32.3032 17.594 32.3192 17.7217 32.3472C19.0424 32.6384 20.048 33.7608 20.1394 35.1168C20.2103 36.17 19.8433 37.0243 19.2157 37.8413C18.9451 38.1939 18.6731 38.5456 18.3999 38.8963C18.1089 39.2698 17.8036 39.6874 17.66 40.136C17.6586 40.1404 17.6586 40.1451 17.66 40.1495C17.6615 40.1538 17.6643 40.1576 17.668 40.1603C17.6718 40.163 17.6764 40.1644 17.681 40.1644C17.6857 40.1644 17.6902 40.1629 17.694 40.1602C18.2995 39.7062 18.8643 39.2191 19.4865 38.791C19.7806 38.5888 20.0871 38.4292 20.406 38.3123C21.8789 37.7721 23.5255 38.2852 24.2978 39.6847C24.7095 40.4304 24.7947 41.3118 24.5275 42.125C24.2064 43.1024 23.4838 43.787 22.4979 44.1151C22.3668 44.1586 22.2318 44.1881 22.0928 44.2034C21.7838 44.2376 21.5094 44.2444 21.2695 44.224C20.7282 44.1776 20.222 44.0084 19.751 43.7163C19.0772 43.2981 18.4878 42.7967 17.867 42.3218C17.7518 42.2335 17.6322 42.152 17.5081 42.0772C17.506 42.076 17.5035 42.0753 17.5011 42.0752C17.4986 42.0751 17.4961 42.0757 17.494 42.0769C17.4918 42.0781 17.4901 42.0798 17.4888 42.0819C17.4876 42.084 17.4869 42.0864 17.4869 42.0889C17.486 42.134 17.4922 42.1844 17.5057 42.2401C17.7347 43.1821 17.9852 44.0629 18.2572 44.8826C18.5543 45.7782 18.9399 46.6336 19.4141 47.4487C19.4197 47.4583 19.4171 47.4642 19.4064 47.4666C19.3414 47.4813 19.2898 47.4853 19.2515 47.4785C18.3734 47.3234 17.5599 47.3076 16.6458 47.3204C16.0294 47.3292 15.4537 47.3821 14.9188 47.4791C14.8793 47.4865 14.8248 47.4821 14.7553 47.466C14.7533 47.4655 14.7514 47.4646 14.7498 47.4632C14.7482 47.4618 14.747 47.4601 14.7462 47.4582C14.7454 47.4563 14.7451 47.4542 14.7453 47.4521C14.7455 47.4501 14.7461 47.4481 14.7472 47.4463C15.2712 46.6201 15.6486 45.7017 15.967 44.7382C16.2581 43.8579 16.5066 42.9626 16.7125 42.0525C16.7129 42.051 16.7128 42.0495 16.7123 42.0481C16.7118 42.0467 16.7108 42.0454 16.7096 42.0446C16.7084 42.0437 16.7069 42.0432 16.7054 42.0432C16.7039 42.0432 16.7024 42.0436 16.7012 42.0444C15.8752 42.573 15.1779 43.2674 14.3284 43.7646C13.8769 44.0289 13.442 44.1739 12.93 44.2099C12.5288 44.2383 12.1135 44.249 11.7239 44.1321C11.0883 43.9412 10.5694 43.5936 10.1673 43.0893C9.37858 42.0999 9.26361 40.7135 9.91682 39.617C10.2949 38.9826 10.8349 38.5349 11.5369 38.2738C11.7251 38.2038 11.904 38.1579 12.0736 38.136C12.8256 38.0388 13.5284 38.156 14.1819 38.4877C14.5149 38.6565 14.8519 38.8758 15.1928 39.1454C15.6219 39.4847 16.0528 39.8238 16.4855 40.1628C16.5189 40.1889 16.5288 40.1818 16.5153 40.1417Z" fill="black"/>
<path d="M97.8608 125.982C97.8608 124.521 97.2058 123.294 95.8957 122.302C94.5935 121.309 92.8189 120.813 90.5719 120.813C88.5631 120.813 86.9394 121.238 85.7008 122.087C84.4621 122.937 83.8428 124.025 83.8428 125.351C83.8428 126.375 84.1723 127.217 84.8313 127.876C85.4983 128.543 86.5464 129.043 87.9756 129.376C86.8322 129.892 85.9667 130.543 85.3792 131.33C84.7996 132.116 84.5098 132.993 84.5098 133.962C84.5098 135.288 85.141 136.399 86.4034 137.296C87.6738 138.194 89.242 138.642 91.1079 138.642C92.9182 138.642 94.3831 138.245 95.5027 137.451C96.6301 136.657 97.1939 135.673 97.1939 134.498C97.1939 133.592 96.8882 132.83 96.2768 132.211C95.6654 131.599 94.7523 131.111 93.5375 130.746C95.062 130.198 96.1617 129.523 96.8366 128.721C97.5194 127.927 97.8608 127.014 97.8608 125.982ZM93.2159 134.521C93.2159 135.442 93.0095 136.185 92.5966 136.749C92.1917 137.32 91.624 137.606 90.8935 137.606C90.2027 137.606 89.631 137.364 89.1785 136.88C88.7259 136.395 88.4996 135.776 88.4996 135.022C88.4996 134.498 88.5988 134.057 88.7973 133.7C88.9958 133.35 89.2777 133.045 89.643 132.783C89.9764 132.536 90.4449 132.266 91.0483 131.973C91.6597 131.679 92.2036 131.413 92.68 131.175C92.8547 131.572 92.9857 132.056 93.073 132.628C93.1683 133.207 93.2159 133.839 93.2159 134.521ZM93.8591 124.779C93.8591 125.335 93.74 125.795 93.5018 126.161C93.2636 126.526 92.9222 126.855 92.4775 127.149C92.0329 127.435 91.4652 127.729 90.7744 128.03C90.0916 128.332 89.4405 128.638 88.8212 128.948C88.5591 128.638 88.3289 128.173 88.1304 127.554C87.9319 126.935 87.8326 126.28 87.8326 125.589C87.8326 124.422 88.1145 123.509 88.6782 122.85C89.242 122.191 89.9844 121.861 90.9054 121.861C91.8264 121.861 92.549 122.131 93.073 122.671C93.5971 123.211 93.8591 123.914 93.8591 124.779Z" fill="black"/>
<path d="M90.2863 106.607C90.1866 106.905 90.0378 107.19 89.8398 107.463C89.5293 107.89 89.2079 108.31 88.8757 108.722C88.2853 109.454 87.7917 110.355 87.792 111.287C87.7923 111.756 87.8471 112.216 88.0419 112.629C88.4667 113.528 89.159 114.112 90.1189 114.381C90.4201 114.465 90.6768 114.457 91.0369 114.449C91.2131 114.445 91.365 114.429 91.4927 114.401C92.8134 114.11 93.819 112.987 93.9104 111.631C93.9813 110.578 93.6143 109.724 92.9867 108.907C92.7161 108.554 92.4441 108.203 92.1709 107.852C91.8799 107.478 91.5746 107.061 91.431 106.612C91.4296 106.608 91.4296 106.603 91.431 106.599C91.4325 106.594 91.4353 106.591 91.439 106.588C91.4428 106.585 91.4473 106.584 91.452 106.584C91.4567 106.584 91.4612 106.585 91.465 106.588C92.0705 107.042 92.6353 107.529 93.2575 107.957C93.5516 108.159 93.8581 108.319 94.177 108.436C95.6499 108.976 97.2965 108.463 98.0688 107.064C98.4805 106.318 98.5657 105.436 98.2985 104.623C97.9774 103.646 97.2548 102.961 96.2689 102.633C96.1378 102.59 96.0028 102.56 95.8638 102.545C95.5548 102.511 95.2804 102.504 95.0405 102.524C94.4992 102.571 93.993 102.74 93.522 103.032C92.8482 103.45 92.2588 103.952 91.638 104.426C91.5228 104.515 91.4032 104.596 91.2791 104.671C91.277 104.672 91.2745 104.673 91.2721 104.673C91.2696 104.673 91.2671 104.672 91.265 104.671C91.2628 104.67 91.2611 104.668 91.2598 104.666C91.2586 104.664 91.2579 104.662 91.2579 104.659C91.257 104.614 91.2632 104.564 91.2767 104.508C91.5057 103.566 91.7562 102.685 92.0282 101.866C92.3253 100.97 92.7109 100.115 93.1851 99.2995C93.1907 99.29 93.1881 99.284 93.1774 99.2816C93.1124 99.2669 93.0608 99.2629 93.0225 99.2697C92.1444 99.4248 91.3309 99.4406 90.4168 99.4278C89.8004 99.419 89.2247 99.3661 88.6898 99.2691C88.6503 99.2617 88.5958 99.2661 88.5263 99.2822C88.5242 99.2827 88.5224 99.2837 88.5208 99.285C88.5192 99.2864 88.518 99.2881 88.5172 99.29C88.5164 99.2919 88.5161 99.294 88.5163 99.2961C88.5165 99.2981 88.5171 99.3001 88.5182 99.3019C89.0422 100.128 89.4195 101.047 89.738 102.01C90.0291 102.89 90.2776 103.786 90.4835 104.696C90.4839 104.697 90.4838 104.699 90.4833 104.7C90.4828 104.702 90.4818 104.703 90.4806 104.704C90.4794 104.705 90.4779 104.705 90.4764 104.705C90.4749 104.705 90.4734 104.705 90.4722 104.704C89.6462 104.175 88.9489 103.481 88.0994 102.984C87.6479 102.719 87.213 102.574 86.701 102.538C86.2998 102.51 85.8845 102.499 85.4949 102.616C84.8593 102.807 84.3404 103.155 83.9383 103.659C83.1496 104.648 83.0346 106.035 83.6878 107.131C84.0659 107.766 84.6059 108.213 85.3079 108.474C85.4961 108.544 85.675 108.59 85.8446 108.612C86.5966 108.709 87.2994 108.592 87.9529 108.261C88.2859 108.092 88.6229 107.872 88.9638 107.603C89.3929 107.264 89.8238 106.924 90.2565 106.585C90.2899 106.559 90.2998 106.566 90.2863 106.607Z" fill="black"/>
</svg>
