<svg width="42" height="42" viewBox="0 0 42 42" fill="none" xmlns="http://www.w3.org/2000/svg">
<rect width="42" height="42" rx="9" fill="#772BF3"/>
<path d="M30.9918 20.203C31.051 20.9354 30.7867 21.6528 30.2673 22.1728C29.026 23.3518 27.5228 24.7699 27.3227 24.9149C27.1743 25.0232 27.0026 25.0749 26.8325 25.0749C26.5749 25.0749 26.3215 24.9558 26.1581 24.7333C25.8896 24.3667 25.9663 23.8534 26.3256 23.5793C26.5174 23.4209 27.8955 22.1253 29.1035 20.9788C29.2611 20.8204 29.3494 20.5813 29.3294 20.3363C29.3094 20.0889 29.1844 19.8697 28.976 19.7206C28.6591 19.4923 28.1623 19.5623 27.8463 19.8781C27.6079 20.1164 27.2502 20.1872 26.9392 20.0589C26.6283 19.9306 26.4248 19.6281 26.4232 19.2915L26.4065 14.1246C26.4065 13.7788 26.1272 13.5005 25.7837 13.5005C25.617 13.5005 25.4603 13.5655 25.3419 13.6838C25.2335 13.793 25.176 13.9371 25.1676 14.0896L25.1643 15.9994C25.1643 16.4593 24.7908 16.8326 24.3306 16.8326C23.8704 16.8326 23.4969 16.4593 23.4969 15.9994L23.5019 13.2864C23.5019 12.9448 23.2235 12.6665 22.88 12.6665C22.7132 12.6665 22.5565 12.7315 22.4398 12.8498C22.3222 12.9681 22.258 13.1247 22.2589 13.2914L22.2464 14.3437C22.2414 14.7312 21.9696 15.0653 21.5903 15.1478C21.2134 15.232 20.8249 15.0412 20.659 14.6895C20.579 14.5204 20.2638 14.3313 19.962 14.3313C19.7211 14.3313 19.4985 14.4721 19.396 14.6895C19.1992 15.1062 18.7015 15.2828 18.2855 15.0862C17.8695 14.8895 17.6919 14.3921 17.8886 13.9763C18.3655 12.9681 19.5886 12.4582 20.6507 12.7614C20.7457 12.3565 20.9533 11.9799 21.2576 11.6741C21.6903 11.24 22.2664 11 22.88 11C23.6895 11 24.3981 11.4249 24.8058 12.0599C25.1084 11.9166 25.4386 11.8332 25.7837 11.8332C27.0468 11.8332 28.0739 12.8589 28.0739 14.1213L28.0864 17.96C28.7325 17.8466 29.4086 17.9766 29.9514 18.3674C30.5533 18.8007 30.9326 19.4689 30.9918 20.2014V20.203ZM23.6628 18.3416C24.0963 18.7765 24.3339 19.3548 24.3306 19.9689V26.0006C24.3306 28.7578 22.0871 31 19.3284 31H18.0012C16.4972 31 15.0833 30.4151 14.0195 29.351L11.7468 27.1855C11.2133 26.6522 10.949 25.934 11.0082 25.2016C11.0674 24.47 11.4459 23.8009 12.0486 23.3676C12.5905 22.9768 13.2658 22.8477 13.9136 22.961L13.9261 19.1198C13.9261 17.8608 14.9532 16.8343 16.2163 16.8343C16.5614 16.8343 16.8915 16.9176 17.1942 17.0617C17.601 16.426 18.3097 16.001 19.12 16.001C19.7336 16.001 20.3097 16.241 20.7432 16.676C21.0508 16.9851 21.2543 17.3684 21.3476 17.7842C21.5669 17.7142 21.7962 17.6658 22.0388 17.6658C22.6532 17.6658 23.2293 17.9058 23.6628 18.3416ZM22.6632 19.9647C22.6632 19.7931 22.599 19.6356 22.4815 19.5164C22.3631 19.3973 22.2055 19.3323 22.0379 19.3323C21.6928 19.3323 21.4127 19.6123 21.4127 19.9564C21.4127 19.9639 21.4085 19.9705 21.4085 19.978V22.6677C21.4085 23.1277 21.0358 23.5009 20.5748 23.5009C20.1138 23.5009 19.7411 23.1285 19.7411 22.6677V18.2966C19.7411 18.1258 19.6778 17.9691 19.5602 17.8508C19.4427 17.7325 19.2859 17.6675 19.12 17.6675C18.7774 17.6675 18.4981 17.9458 18.4981 18.2874L18.5064 22.6669C18.5064 23.1277 18.1329 23.5001 17.6727 23.5001C17.2125 23.5001 16.839 23.1277 16.839 22.6669L16.8324 19.0923C16.8249 18.939 16.7673 18.794 16.6581 18.6849C16.5406 18.5666 16.383 18.5016 16.2163 18.5016C15.8728 18.5016 15.5935 18.7799 15.5935 19.1232L15.5768 24.2925C15.576 24.6291 15.3717 24.9324 15.0608 25.0607C14.7498 25.1882 14.3913 25.1174 14.1537 24.8791C13.8361 24.5616 13.34 24.4933 13.0232 24.7216C12.8156 24.8716 12.6906 25.0899 12.6706 25.3374C12.6514 25.5823 12.7389 25.8215 12.9123 25.9948L15.185 28.1604C15.9478 28.9228 16.9432 29.3344 18.002 29.3344H19.3293C21.1684 29.3344 22.664 27.8396 22.664 26.0015V19.9655L22.6632 19.9647Z" fill="white"/>
</svg>
