<svg width="42" height="42" viewBox="0 0 42 42" fill="none" xmlns="http://www.w3.org/2000/svg">
<rect width="42" height="42" rx="9" fill="#772BF3"/>
<path d="M28.5 31C27.1217 31 26 29.8785 26 28.5005V21.8351C26 21.376 25.6267 21.0019 25.1667 21.0019H16.8333C16.3733 21.0019 16 21.376 16 21.8351V28.5005C16 29.8785 14.8783 31 13.5 31C12.1217 31 11 29.8785 11 28.5005V19.1056C11 17.7183 11.6867 16.4277 12.8358 15.652L18.6692 11.7161C20.085 10.7613 21.915 10.7613 23.3308 11.7161L29.1642 15.652C30.3133 16.4277 31 17.7183 31 19.1056V28.5005C31 29.8785 29.8783 31 28.5 31ZM16.8333 19.3355H25.1667C26.545 19.3355 27.6667 20.457 27.6667 21.8351V28.5005C27.6667 28.9595 28.04 29.3336 28.5 29.3336C28.96 29.3336 29.3333 28.9595 29.3333 28.5005V19.1056C29.3333 18.2732 28.9217 17.4984 28.2317 17.0335L22.3983 13.0975C21.5483 12.5243 20.4517 12.5243 19.6025 13.0975L13.7683 17.0335C13.0783 17.4984 12.6667 18.2732 12.6667 19.1056V28.5005C12.6667 28.9595 13.04 29.3336 13.5 29.3336C13.96 29.3336 14.3333 28.9595 14.3333 28.5005V21.8351C14.3333 20.457 15.455 19.3355 16.8333 19.3355ZM20.1667 30.1668V28.5005C20.1667 28.0406 19.7942 27.6673 19.3333 27.6673H18.5C18.0392 27.6673 17.6667 28.0406 17.6667 28.5005V30.1668C17.6667 30.6267 18.0392 31 18.5 31H19.3333C19.7942 31 20.1667 30.6267 20.1667 30.1668ZM20.1667 25.1678V23.5014C20.1667 23.0415 19.7942 22.6682 19.3333 22.6682H18.5C18.0392 22.6682 17.6667 23.0415 17.6667 23.5014V25.1678C17.6667 25.6277 18.0392 26.0009 18.5 26.0009H19.3333C19.7942 26.0009 20.1667 25.6277 20.1667 25.1678ZM24.3333 30.1668V28.5005C24.3333 28.0406 23.9608 27.6673 23.5 27.6673H22.6667C22.2058 27.6673 21.8333 28.0406 21.8333 28.5005V30.1668C21.8333 30.6267 22.2058 31 22.6667 31H23.5C23.9608 31 24.3333 30.6267 24.3333 30.1668Z" fill="white"/>
</svg>
