<?xml version="1.0" encoding="UTF-8"?>
<svg xmlns="http://www.w3.org/2000/svg" xmlns:xlink="http://www.w3.org/1999/xlink" width="100px" height="19px" viewBox="0 0 100 19" version="1.1">
<g id="surface2">
<path style=" stroke:none;fill-rule:evenodd;fill:rgb(100%,100%,100%);fill-opacity:1;" d="M 97.890625 15.433594 L 97.890625 18.878906 L 97.09375 18.878906 L 97.09375 15.433594 L 95.316406 15.433594 L 95.316406 14.734375 L 99.675781 14.734375 L 99.675781 15.433594 Z M 88.554688 14.742188 L 92.144531 14.742188 L 92.144531 15.441406 L 89.359375 15.441406 L 89.359375 16.410156 L 91.761719 16.410156 L 91.761719 17.109375 L 89.359375 17.109375 L 89.359375 18.207031 L 92.214844 18.207031 L 92.214844 18.90625 L 88.554688 18.90625 Z M 81.257812 15.777344 L 81.257812 18.878906 L 80.511719 18.878906 L 80.511719 14.734375 L 81.332031 14.734375 L 83.992188 17.730469 L 83.992188 14.734375 L 84.734375 14.734375 L 84.734375 18.878906 L 84.015625 18.878906 Z M 75.898438 18.074219 L 76.625 18.074219 L 76.625 18.878906 L 75.898438 18.878906 Z M 71.171875 18.886719 L 70.015625 17.253906 L 68.785156 17.253906 L 68.785156 18.886719 L 67.992188 18.886719 L 67.992188 14.742188 L 70.394531 14.742188 C 70.871094 14.734375 71.265625 14.8125 71.5625 14.976562 C 71.863281 15.148438 72.015625 15.484375 72.015625 15.976562 C 72.007812 16.355469 71.898438 16.652344 71.675781 16.859375 C 71.460938 17.066406 71.195312 17.175781 70.890625 17.195312 L 72.128906 18.878906 L 71.171875 18.878906 Z M 70.984375 16.46875 C 71.136719 16.390625 71.214844 16.238281 71.214844 15.996094 C 71.214844 15.753906 71.136719 15.597656 70.984375 15.519531 C 70.820312 15.449219 70.582031 15.414062 70.265625 15.414062 L 68.777344 15.414062 L 68.777344 16.582031 L 70.265625 16.582031 C 70.589844 16.582031 70.820312 16.546875 70.984375 16.46875 Z M 60.871094 14.742188 L 64.460938 14.742188 L 64.460938 15.441406 L 61.675781 15.441406 L 61.675781 16.410156 L 64.078125 16.410156 L 64.078125 17.109375 L 61.675781 17.109375 L 61.675781 18.207031 L 64.53125 18.207031 L 64.53125 18.90625 L 60.871094 18.90625 Z M 56.402344 18.886719 L 54.761719 16.867188 L 53.914062 17.601562 L 53.914062 18.886719 L 53.121094 18.886719 L 53.121094 14.742188 L 53.914062 14.742188 L 53.914062 16.675781 L 56.121094 14.742188 L 57.222656 14.742188 L 55.324219 16.382812 L 57.417969 18.886719 Z M 49.09375 18.238281 C 48.921875 18.457031 48.683594 18.628906 48.367188 18.765625 C 48.058594 18.914062 47.667969 18.984375 47.1875 18.992188 C 46.71875 18.992188 46.324219 18.914062 46.015625 18.765625 C 45.710938 18.628906 45.46875 18.457031 45.289062 18.238281 C 45.121094 18.015625 44.992188 17.78125 44.914062 17.539062 C 44.835938 17.296875 44.804688 17.066406 44.804688 16.847656 C 44.804688 16.253906 44.972656 15.742188 45.332031 15.3125 C 45.691406 14.871094 46.308594 14.648438 47.179688 14.636719 C 48.050781 14.648438 48.667969 14.871094 49.035156 15.3125 C 49.382812 15.742188 49.5625 16.253906 49.5625 16.847656 C 49.5625 17.066406 49.53125 17.296875 49.460938 17.539062 C 49.394531 17.78125 49.273438 18.015625 49.09375 18.238281 Z M 48.316406 15.683594 C 48.027344 15.449219 47.648438 15.328125 47.1875 15.328125 C 46.726562 15.328125 46.351562 15.449219 46.058594 15.683594 C 45.761719 15.925781 45.605469 16.296875 45.605469 16.796875 C 45.605469 17.089844 45.65625 17.332031 45.753906 17.523438 C 45.847656 17.714844 45.964844 17.867188 46.121094 17.980469 C 46.273438 18.09375 46.445312 18.171875 46.632812 18.214844 C 46.8125 18.265625 47 18.292969 47.1875 18.292969 C 47.28125 18.292969 47.375 18.28125 47.480469 18.265625 C 47.574219 18.257812 47.667969 18.238281 47.761719 18.214844 C 47.941406 18.171875 48.109375 18.09375 48.265625 17.980469 C 48.417969 17.867188 48.546875 17.714844 48.640625 17.523438 C 48.734375 17.324219 48.777344 17.082031 48.777344 16.796875 C 48.761719 16.296875 48.617188 15.925781 48.316406 15.683594 Z M 41.015625 17.117188 C 40.835938 17.195312 40.640625 17.238281 40.445312 17.253906 C 40.238281 17.273438 40.050781 17.28125 39.871094 17.28125 L 38.4375 17.28125 L 38.4375 18.886719 L 37.640625 18.886719 L 37.640625 14.742188 L 39.863281 14.742188 C 40.042969 14.742188 40.230469 14.75 40.4375 14.757812 C 40.640625 14.777344 40.828125 14.820312 41.015625 14.898438 C 41.207031 14.976562 41.359375 15.097656 41.46875 15.277344 C 41.589844 15.460938 41.648438 15.699219 41.648438 16.019531 C 41.648438 16.332031 41.582031 16.574219 41.46875 16.746094 C 41.351562 16.910156 41.207031 17.039062 41.015625 17.117188 Z M 40.792969 15.683594 C 40.753906 15.605469 40.691406 15.554688 40.605469 15.511719 C 40.53125 15.46875 40.445312 15.449219 40.351562 15.433594 C 40.257812 15.433594 40.144531 15.425781 40.035156 15.425781 L 38.445312 15.425781 L 38.445312 16.574219 L 40.035156 16.574219 C 40.152344 16.574219 40.257812 16.566406 40.351562 16.554688 C 40.445312 16.539062 40.53125 16.519531 40.605469 16.476562 C 40.683594 16.433594 40.753906 16.382812 40.792969 16.296875 C 40.835938 16.21875 40.855469 16.117188 40.855469 15.996094 C 40.855469 15.863281 40.828125 15.761719 40.792969 15.683594 Z M 33.582031 17.117188 C 33.402344 17.195312 33.207031 17.238281 33.007812 17.253906 C 32.804688 17.273438 32.617188 17.28125 32.4375 17.28125 L 31 17.28125 L 31 18.886719 L 30.207031 18.886719 L 30.207031 14.742188 L 32.425781 14.742188 C 32.605469 14.742188 32.792969 14.75 33 14.757812 C 33.207031 14.777344 33.394531 14.820312 33.582031 14.898438 C 33.769531 14.976562 33.921875 15.097656 34.035156 15.277344 C 34.152344 15.460938 34.214844 15.699219 34.214844 16.019531 C 34.214844 16.332031 34.144531 16.574219 34.035156 16.746094 C 33.921875 16.910156 33.769531 17.039062 33.582031 17.117188 Z M 33.367188 15.683594 C 33.324219 15.605469 33.265625 15.554688 33.179688 15.511719 C 33.101562 15.46875 33.015625 15.449219 32.921875 15.433594 C 32.828125 15.433594 32.71875 15.425781 32.605469 15.425781 L 31.015625 15.425781 L 31.015625 16.574219 L 32.605469 16.574219 C 32.726562 16.574219 32.828125 16.566406 32.921875 16.554688 C 33.015625 16.539062 33.101562 16.519531 33.179688 16.476562 C 33.257812 16.433594 33.324219 16.382812 33.367188 16.296875 C 33.410156 16.21875 33.425781 16.117188 33.425781 15.996094 C 33.417969 15.863281 33.402344 15.761719 33.367188 15.683594 Z M 26.152344 17.117188 C 25.972656 17.195312 25.777344 17.238281 25.582031 17.253906 C 25.375 17.273438 25.1875 17.28125 25.007812 17.28125 L 23.574219 17.28125 L 23.574219 18.886719 L 22.777344 18.886719 L 22.777344 14.742188 L 25 14.742188 C 25.179688 14.742188 25.367188 14.75 25.574219 14.757812 C 25.777344 14.777344 25.964844 14.820312 26.152344 14.898438 C 26.34375 14.976562 26.496094 15.097656 26.605469 15.277344 C 26.726562 15.460938 26.785156 15.699219 26.785156 16.019531 C 26.785156 16.332031 26.71875 16.574219 26.605469 16.746094 C 26.496094 16.910156 26.34375 17.039062 26.152344 17.117188 Z M 25.929688 15.683594 C 25.890625 15.605469 25.828125 15.554688 25.742188 15.511719 C 25.667969 15.46875 25.582031 15.449219 25.488281 15.433594 C 25.394531 15.433594 25.28125 15.425781 25.171875 15.425781 L 23.582031 15.425781 L 23.582031 16.574219 L 25.171875 16.574219 C 25.289062 16.574219 25.394531 16.566406 25.488281 16.554688 C 25.582031 16.539062 25.667969 16.519531 25.742188 16.476562 C 25.820312 16.433594 25.890625 16.382812 25.929688 16.296875 C 25.972656 16.21875 25.992188 16.117188 25.992188 15.996094 C 25.992188 15.863281 25.972656 15.761719 25.929688 15.683594 Z M 25.929688 15.683594 "/>
<path style=" stroke:none;fill-rule:evenodd;fill:rgb(100%,100%,100%);fill-opacity:1;" d="M 96.691406 8.472656 L 99.699219 11.632812 L 97.402344 11.632812 L 94.394531 8.472656 L 91.65625 8.472656 L 91.65625 11.667969 L 89.972656 11.667969 L 89.972656 2.210938 L 96.632812 2.210938 C 96.648438 2.210938 96.65625 2.210938 96.675781 2.210938 C 98.324219 2.210938 99.65625 3.609375 99.65625 5.347656 C 99.65625 7.066406 98.332031 8.464844 96.691406 8.472656 Z M 96.632812 3.886719 L 91.65625 3.886719 L 91.667969 6.789062 L 96.582031 6.789062 C 96.589844 6.789062 96.589844 6.789062 96.597656 6.789062 C 97.394531 6.789062 98.035156 6.140625 98.035156 5.335938 C 98.042969 4.542969 97.410156 3.902344 96.632812 3.886719 Z M 79.308594 11.667969 L 79.308594 2.210938 L 88.605469 2.210938 L 88.605469 3.886719 L 80.957031 3.886719 L 80.957031 6.097656 L 87.574219 6.097656 L 87.574219 7.773438 L 80.957031 7.773438 L 80.957031 9.984375 L 88.605469 9.984375 L 88.605469 11.667969 Z M 78.007812 11.632812 L 75.71875 11.632812 L 71.554688 7.324219 L 69.777344 8.714844 L 69.777344 11.675781 L 68.121094 11.667969 L 68.121094 2.210938 L 69.777344 2.203125 L 69.777344 6.476562 L 75.453125 2.253906 L 78 2.28125 L 72.898438 6.261719 Z M 64.453125 11.660156 L 58.214844 11.660156 C 56.949219 11.660156 55.929688 10.621094 55.929688 9.335938 L 55.929688 4.535156 C 55.929688 3.246094 56.957031 2.210938 58.214844 2.210938 L 64.453125 2.210938 C 65.71875 2.210938 66.734375 3.246094 66.734375 4.535156 L 66.734375 9.335938 C 66.742188 10.621094 65.71875 11.660156 64.453125 11.660156 Z M 65.078125 4.871094 C 65.078125 4.308594 64.625 3.851562 64.070312 3.851562 L 58.597656 3.851562 C 58.042969 3.851562 57.589844 4.308594 57.589844 4.871094 L 57.589844 8.957031 C 57.589844 9.515625 58.042969 9.976562 58.597656 9.976562 L 64.070312 9.976562 C 64.625 9.976562 65.078125 9.515625 65.078125 8.957031 Z M 51.574219 8.472656 C 51.554688 8.472656 51.546875 8.472656 51.53125 8.472656 L 46.5625 8.472656 L 46.5625 11.667969 L 44.878906 11.667969 L 44.878906 6.789062 L 51.488281 6.789062 C 51.496094 6.789062 51.496094 6.789062 51.503906 6.789062 C 52.289062 6.789062 52.929688 6.140625 52.929688 5.335938 C 52.929688 4.542969 52.308594 3.902344 51.53125 3.886719 L 46.5625 3.886719 L 46.574219 5.769531 L 44.878906 5.769531 L 44.878906 2.210938 L 51.53125 2.210938 C 51.546875 2.210938 51.554688 2.210938 51.574219 2.210938 C 53.214844 2.210938 54.546875 3.609375 54.546875 5.347656 C 54.546875 7.066406 53.214844 8.472656 51.574219 8.472656 Z M 51.574219 8.472656 "/>
<path style=" stroke:none;fill-rule:evenodd;fill:rgb(12.941176%,58.431373%,32.941176%);fill-opacity:1;" d="M 14.804688 16.054688 C 13.445312 16.339844 11.488281 15.492188 9.539062 13.828125 C 7.394531 12.066406 5.683594 9.777344 4.589844 7.167969 C 3.511719 8.679688 2.699219 10.042969 2.207031 11.097656 C 1.972656 11.554688 1.835938 12.054688 1.835938 12.574219 C 1.820312 14.199219 3.085938 15.3125 4.640625 15.320312 C 5.53125 15.296875 6.332031 15.027344 7.136719 14.542969 C 5.820312 15.996094 4.273438 16.296875 3.101562 16.046875 C 1.460938 15.769531 0.214844 14.320312 0.214844 12.574219 C 0.214844 12.023438 0.34375 11.503906 0.5625 11.039062 C 1.152344 9.707031 2.214844 7.929688 3.742188 5.863281 C 4.121094 5.355469 4.503906 4.863281 4.898438 4.371094 C 4.898438 4.378906 4.90625 4.386719 4.90625 4.40625 C 4.941406 4.5 5.007812 4.691406 5.007812 4.691406 C 5.015625 4.714844 5.09375 4.929688 5.136719 5.027344 C 5.144531 5.042969 5.238281 5.277344 5.273438 5.371094 C 5.273438 5.378906 5.28125 5.390625 5.28125 5.398438 C 5.316406 5.492188 5.359375 5.578125 5.402344 5.675781 C 5.410156 5.691406 5.417969 5.707031 5.417969 5.71875 C 5.984375 7.003906 6.691406 8.195312 7.519531 9.292969 C 7.519531 9.292969 7.519531 9.300781 7.53125 9.300781 C 7.546875 9.320312 7.554688 9.335938 7.574219 9.351562 C 7.617188 9.40625 7.65625 9.457031 7.691406 9.507812 C 8.1875 10.121094 8.691406 10.683594 9.207031 11.191406 C 9.625 11.597656 10.058594 11.988281 10.519531 12.351562 L 10.519531 12.359375 C 11.742188 13.316406 12.878906 13.871094 13.683594 13.90625 C 14.914062 13.992188 15.898438 13.171875 15.8125 11.925781 C 15.804688 11.746094 15.769531 11.5625 15.71875 11.390625 C 15.699219 11.339844 15.675781 11.253906 15.65625 11.203125 C 15.648438 11.183594 15.605469 11.0625 15.589844 11.039062 C 15.171875 10.050781 14.308594 8.59375 12.972656 6.753906 C 11.753906 5.070312 10.273438 3.289062 8.957031 1.941406 C 8.957031 1.941406 8.949219 1.933594 8.949219 1.933594 C 8.164062 2.738281 7.308594 3.703125 6.488281 4.714844 C 6.257812 4.222656 6.058594 3.722656 5.871094 3.210938 C 6.921875 1.996094 7.984375 0.890625 8.949219 0.015625 C 8.949219 0.015625 9.179688 0.234375 9.289062 0.335938 C 10.847656 1.796875 12.605469 3.792969 14.164062 5.882812 C 15.691406 7.945312 16.753906 9.722656 17.34375 11.054688 C 17.5625 11.519531 17.691406 12.039062 17.691406 12.59375 C 17.691406 14.328125 16.445312 15.777344 14.804688 16.054688 Z M 14.804688 16.054688 "/>
<path style=" stroke:none;fill-rule:evenodd;fill:rgb(12.941176%,58.431373%,32.941176%);fill-opacity:1;" d="M 8.957031 15.285156 C 9.890625 16.253906 11.078125 16.96875 12.402344 17.324219 C 11.554688 18.273438 10.324219 18.878906 8.964844 18.878906 C 7.597656 18.878906 6.375 18.28125 5.519531 17.324219 C 6.835938 16.96875 8.027344 16.253906 8.957031 15.285156 Z M 8.957031 15.285156 "/>
<path style=" stroke:none;fill-rule:evenodd;fill:rgb(12.941176%,58.431373%,32.941176%);fill-opacity:1;" d="M 40.488281 8.472656 C 40.46875 8.472656 40.460938 8.472656 40.445312 8.472656 L 35.480469 8.472656 L 35.480469 11.667969 L 33.792969 11.667969 L 33.792969 6.789062 L 40.402344 6.789062 C 40.410156 6.789062 40.417969 6.789062 40.417969 6.789062 C 41.207031 6.789062 41.847656 6.140625 41.847656 5.335938 C 41.847656 4.542969 41.222656 3.902344 40.445312 3.886719 L 35.480469 3.886719 L 35.488281 5.769531 L 33.792969 5.769531 L 33.792969 2.210938 L 40.445312 2.210938 C 40.460938 2.210938 40.46875 2.210938 40.488281 2.210938 C 42.128906 2.210938 43.460938 3.609375 43.460938 5.347656 C 43.460938 7.066406 42.128906 8.472656 40.488281 8.472656 Z M 29.4375 8.472656 C 29.417969 8.472656 29.410156 8.472656 29.394531 8.472656 L 24.425781 8.472656 L 24.425781 11.667969 L 22.742188 11.667969 L 22.742188 6.789062 L 29.351562 6.789062 C 29.359375 6.789062 29.359375 6.789062 29.367188 6.789062 C 30.164062 6.789062 30.792969 6.140625 30.792969 5.335938 C 30.792969 4.542969 30.171875 3.902344 29.394531 3.886719 L 24.425781 3.886719 L 24.4375 5.769531 L 22.742188 5.769531 L 22.742188 2.210938 L 29.394531 2.210938 C 29.410156 2.210938 29.417969 2.210938 29.4375 2.210938 C 31.078125 2.210938 32.410156 3.609375 32.410156 5.347656 C 32.410156 7.066406 31.078125 8.472656 29.4375 8.472656 Z M 29.4375 8.472656 "/>
</g>
</svg>
