<svg width="42" height="42" viewBox="0 0 42 42" fill="none" xmlns="http://www.w3.org/2000/svg">
<rect width="42" height="42" rx="9" fill="#772BF3"/>
<path fill-rule="evenodd" clip-rule="evenodd" d="M29.3333 19.2857H29.75C30.4392 19.2857 31 19.8305 31 20.5V22.9286C31 23.598 30.4392 24.1429 29.75 24.1429H29.3333V24.9524C29.3333 27.1842 27.4642 29 25.1667 29H16.8333C16.2753 29 15.7426 28.8929 15.2558 28.6987L16.5854 27.3691C16.667 27.3769 16.7497 27.381 16.8333 27.381H25.1667C26.545 27.381 27.6667 26.2913 27.6667 24.9524V18.4762C27.6667 17.8721 27.4384 17.3188 27.0612 16.8934L28.2248 15.7298C28.9125 16.4519 29.3333 17.4172 29.3333 18.4762V19.2857ZM25.5956 14.4499C25.4546 14.4358 25.3115 14.4286 25.1667 14.4286H21.8333V12.8095C21.8333 12.3619 21.46 12 21 12C20.54 12 20.1667 12.3619 20.1667 12.8095V14.4286H16.8333C14.5358 14.4286 12.6667 16.2443 12.6667 18.4762V19.2857H12.25C11.5608 19.2857 11 19.8305 11 20.5V22.9286C11 23.598 11.5608 24.1429 12.25 24.1429H12.6667V24.9524C12.6667 25.6485 12.8485 26.3042 13.1685 26.8769L14.4285 25.617C14.3665 25.4057 14.3333 25.1827 14.3333 24.9524V18.4762C14.3333 17.1372 15.455 16.0476 16.8333 16.0476H23.9978L25.5956 14.4499ZM16.0068 24.0386C16.0539 23.6823 16.3392 23.399 16.7022 23.3433L16.0068 24.0386ZM23.2419 20.7126L24.9489 19.0057C25.0863 19.2007 25.1667 19.4365 25.1667 19.6905C25.1667 20.3608 24.6067 20.9048 23.9167 20.9048C23.6682 20.9048 23.4366 20.8342 23.2419 20.7126ZM19.431 24.5236L20.6212 23.3333H21.8333C22.2942 23.3333 22.6667 23.6952 22.6667 24.1429C22.6667 24.5905 22.2942 24.9524 21.8333 24.9524H20.1667C19.8482 24.9524 19.5712 24.7789 19.431 24.5236ZM18.0833 20.9048C18.7733 20.9048 19.3333 20.3608 19.3333 19.6905C19.3333 19.0202 18.7733 18.4762 18.0833 18.4762C17.3933 18.4762 16.8333 19.0202 16.8333 19.6905C16.8333 20.3608 17.3933 20.9048 18.0833 20.9048ZM25.1667 24.9524C25.6275 24.9524 26 24.5905 26 24.1429C26 23.6952 25.6275 23.3333 25.1667 23.3333H24.3333C23.8725 23.3333 23.5 23.6952 23.5 24.1429C23.5 24.5905 23.8725 24.9524 24.3333 24.9524H25.1667Z" fill="white"/>
<path d="M14 31L31 14" stroke="white" stroke-width="2"/>
</svg>
