<svg width="24" height="25" viewBox="0 0 24 25" fill="none" xmlns="http://www.w3.org/2000/svg">
<g clip-path="url(#clip0_2001_580)">
<path d="M12 24.2392C18.6274 24.2392 24 18.8666 24 12.2392C24 5.61178 18.6274 0.239197 12 0.239197C5.37258 0.239197 0 5.61178 0 12.2392C0 18.8666 5.37258 24.2392 12 24.2392Z" fill="#F0F0F0"/>
<path d="M23.2536 16.4131C23.736 15.1131 24 13.707 24 12.2392C24 10.7714 23.736 9.36529 23.2536 8.06531H0.746391C0.264047 9.36529 0 10.7714 0 12.2392C0 13.707 0.264047 15.1131 0.746391 16.4131L12 17.4566L23.2536 16.4131Z" fill="#0052B4"/>
<path d="M12.0002 24.2392C17.1598 24.2392 21.5583 20.9827 23.2538 16.4131H0.746582C2.4421 20.9827 6.84061 24.2392 12.0002 24.2392Z" fill="#D80027"/>
</g>
<defs>
<clipPath id="clip0_2001_580">
<rect width="24" height="24" fill="white" transform="translate(0 0.239197)"/>
</clipPath>
</defs>
</svg>
