<svg width="24" height="65" viewBox="0 0 24 65" fill="none" xmlns="http://www.w3.org/2000/svg">
<g>
<rect x="1" y="1" width="22" height="34" rx="11" stroke="white" stroke-width="2"/>
<path d="M12 9V16" stroke="white" stroke-width="2" stroke-linecap="round"/>
</g>
<path d="M13 44C13 43.4477 12.5523 43 12 43C11.4477 43 11 43.4477 11 44L13 44ZM11.2929 64.7071C11.6834 65.0976 12.3166 65.0976 12.7071 64.7071L19.0711 58.3431C19.4616 57.9526 19.4616 57.3195 19.0711 56.9289C18.6805 56.5384 18.0474 56.5384 17.6569 56.9289L12 62.5858L6.34315 56.9289C5.95262 56.5384 5.31946 56.5384 4.92893 56.9289C4.53841 57.3195 4.53841 57.9526 4.92893 58.3431L11.2929 64.7071ZM11 44L11 64L13 64L13 44L11 44Z" fill="white"/>
</svg>
