<svg width="42" height="42" viewBox="0 0 42 42" fill="none" xmlns="http://www.w3.org/2000/svg">
<rect width="42" height="42" rx="9" fill="#772BF3"/>
<path d="M16.9751 18.9166C16.9751 19.3758 17.0837 19.8108 17.2771 20.1975C16.8615 20.7208 16.6028 21.37 16.5681 22.0775C15.7701 21.2541 15.279 20.1408 15.279 18.9175C15.279 16.0749 17.9267 13.8283 20.9263 14.4333C22.6919 14.7899 24.1226 16.1874 24.4992 17.92C24.6128 18.4433 24.634 18.9558 24.5763 19.4458C24.5272 19.8608 24.1566 20.1675 23.7308 20.1675H23.6927C23.1906 20.1675 22.8378 19.7283 22.8929 19.2383C22.9303 18.9091 22.9107 18.5633 22.8251 18.2108C22.5724 17.1666 21.7056 16.3208 20.6413 16.0799C18.7027 15.6424 16.9743 17.0858 16.9743 18.9175L16.9751 18.9166ZM13.6762 17.8375C13.9086 16.5099 14.5692 15.2999 15.5937 14.3558C16.8903 13.1616 18.5882 12.5716 20.3683 12.6799C23.7206 12.8933 26.342 15.7791 26.303 19.2341C26.2869 20.6808 25.0538 21.8325 23.5824 21.8325H21.542C21.335 21.1416 20.6922 20.6333 19.9222 20.6333C18.9851 20.6333 18.226 21.3791 18.226 22.3C18.226 23.2208 18.9851 23.9666 19.9222 23.9666C20.3784 23.9666 20.7914 23.7875 21.0959 23.4991H23.5824C25.9731 23.4991 27.9652 21.6283 27.9991 19.28C28.0619 14.9291 24.7358 11.2874 20.4777 11.0174C18.2184 10.8733 16.0754 11.6274 14.4344 13.1408C13.1631 14.3116 12.3176 15.8616 12.0131 17.5291C11.9207 18.0358 12.3286 18.5008 12.8519 18.5008C13.2521 18.5008 13.6092 18.2266 13.6762 17.8383V17.8375ZM19.9434 25.1666C16.8098 25.1666 14.0985 27.0767 13.197 29.9183C13.0571 30.3575 13.3073 30.825 13.7542 30.9625C14.2003 31.095 14.676 30.8533 14.816 30.415C15.4851 28.3067 17.5925 26.8333 19.9425 26.8333C22.2925 26.8333 24.4008 28.3067 25.0691 30.415C25.1827 30.7717 25.5168 31 25.879 31C25.9629 31 26.0469 30.9875 26.1317 30.9625C26.5786 30.825 26.828 30.3575 26.6889 29.9183C25.7874 27.0767 23.0761 25.1666 19.9425 25.1666H19.9434Z" fill="white"/>
</svg>
