<svg width="42" height="42" viewBox="0 0 42 42" fill="none" xmlns="http://www.w3.org/2000/svg">
<rect width="42" height="42" rx="9" fill="#772BF3"/>
<path d="M23.5758 24.3308C29.0517 24.3033 31 21.4033 31 18.9167C31 17.5192 30.0108 16.35 28.6967 16.0675C28.81 15.745 28.9083 15.4492 28.975 15.225C29.2692 14.2308 29.0783 13.18 28.4525 12.3425C27.8142 11.49 26.8383 11 25.7742 11H16.2258C15.1617 11 14.185 11.49 13.5467 12.3433C12.9208 13.1808 12.7308 14.2317 13.025 15.225C13.0917 15.4492 13.1892 15.745 13.3033 16.0675C11.9892 16.35 11 17.5192 11 18.9167C11 21.4033 12.9492 24.3033 18.4242 24.3308C18.4708 24.5825 18.5 24.8392 18.5 25.1V27.6667C18.5 29.1883 17.22 29.3267 16.8333 29.3333H16C15.5392 29.3333 15.1667 29.7058 15.1667 30.1667C15.1667 30.6275 15.5392 31 16 31H26C26.4608 31 26.8333 30.6275 26.8333 30.1667C26.8333 29.7058 26.4608 29.3333 26 29.3333H25.1733C24.78 29.3267 23.5 29.1883 23.5 27.6667V25.1C23.5 24.8392 23.5292 24.5825 23.5758 24.3308ZM28.0833 17.6667C28.7725 17.6667 29.3333 18.2275 29.3333 18.9167C29.3333 20.6117 27.9925 22.4142 24.3033 22.6417C24.4875 22.3925 24.6983 22.1617 24.9383 21.9575C26.3875 20.7258 27.3825 19.08 28.0442 17.6583C28.0583 17.6583 28.0692 17.6667 28.0833 17.6667ZM12.6667 18.9167C12.6667 18.2275 13.2275 17.6667 13.9167 17.6667C13.9308 17.6667 13.9425 17.6592 13.9558 17.6583C14.6175 19.08 15.6117 20.725 17.0617 21.9575C17.3017 22.1617 17.5125 22.3917 17.6967 22.6417C14.0075 22.4142 12.6667 20.6117 12.6667 18.9167ZM19.7608 29.3333C20.0067 28.8825 20.1667 28.3383 20.1667 27.6667V25.1C20.1667 23.3908 19.4283 21.7833 18.1408 20.6883C16.6667 19.435 15.3517 17.2158 14.6233 14.7533C14.48 14.2675 14.5733 13.7533 14.8825 13.3417C15.2025 12.9125 15.6925 12.6667 16.2258 12.6667H25.7733C26.3067 12.6667 26.7967 12.9125 27.1167 13.3408C27.4242 13.7533 27.5183 14.2675 27.3758 14.7525C26.6467 17.2167 25.3317 19.435 23.8583 20.6883C22.5708 21.7825 21.8325 23.3908 21.8325 25.1V27.6667C21.8325 28.3383 21.9917 28.8825 22.2383 29.3333H19.7608ZM19.1592 19.1358C18.9392 18.9842 18.8467 18.7042 18.9342 18.4508L19.3667 17.1125L18.2283 16.2792C17.9558 16.0792 17.8967 15.6967 18.0967 15.4242C18.2117 15.2675 18.395 15.1742 18.5892 15.1742H19.99L20.4158 13.8467C20.5233 13.5242 20.8717 13.3508 21.1942 13.4583C21.3775 13.5192 21.5217 13.6633 21.5825 13.8467L22.0075 15.1742H23.4083C23.7458 15.1742 24.02 15.4475 24.02 15.7858C24.02 15.9817 23.9267 16.165 23.7692 16.28L22.6308 17.1133L23.0633 18.4517C23.1667 18.7733 22.99 19.1183 22.6675 19.2225C22.4808 19.2825 22.2767 19.2492 22.1183 19.1333L20.9992 18.31L19.8792 19.1325C19.6658 19.2917 19.3742 19.2925 19.1592 19.1358Z" fill="white"/>
</svg>
